<?xml version="1.0" encoding="utf-8"?><!-- Generator: Adobe Illustrator 16.0.3, SVG Export Plug-In . SVG Version: 6.00 Build 0)  --><!DOCTYPE svg PUBLIC
    "-//W3C//DTD SVG 1.1//EN" "http://www.w3.org/Graphics/SVG/1.1/DTD/svg11.dtd">
<svg version="1.1" xmlns="http://www.w3.org/2000/svg" xmlns:xlink="http://www.w3.org/1999/xlink" x="0px" y="0px" width="800px"
	 height="800px" viewBox="0 0 800 800" enable-background="new 0 0 800 800" xml:space="preserve">
<g id="Ebene_4">
	<rect opacity="0.85" width="800" height="800"/>
</g>
<g id="Ebene_5">
	<g>
		<path fill="#FFFFFF" stroke="#706F6F" stroke-width="0.25" stroke-miterlimit="10" d="M340.333,239.725
			c24.1-18.739,49.74-35.585,76.703-50.308c-3.103-4.982-5.507-10.438-7.083-16.234c-28.377,15.341-55.359,32.98-80.819,52.813
			C333.395,230.096,337.16,234.703,340.333,239.725z"/>
		<path fill="#FFFFFF" stroke="#706F6F" stroke-width="0.25" stroke-miterlimit="10" d="M124.824,616.625
			c3.986-31.477,10.562-62.157,19.499-91.824c-5.839-1.242-11.376-3.311-16.475-6.089c-9.576,31.622-16.422,63.948-20.489,96.824
			c1.405-0.081,2.817-0.134,4.242-0.134C116.118,615.402,120.532,615.836,124.824,616.625z"/>
		<path fill="#FFFFFF" stroke="#706F6F" stroke-width="0.25" stroke-miterlimit="10" d="M225.997,329.133
			c-18.96,24.339-35.909,50.074-50.768,77.084c5.718,1.771,11.077,4.362,15.948,7.629c14.3-25.795,30.55-50.366,48.548-73.514
			C234.703,337.16,230.096,333.395,225.997,329.133z"/>
		<path fill="#FFFFFF" stroke="#706F6F" stroke-width="0.25" stroke-miterlimit="10" d="M616.625,124.824
			c-0.789-4.292-1.223-8.707-1.223-13.223c0-1.425,0.053-2.837,0.134-4.242c-31.602,3.909-62.698,10.376-93.146,19.377
			c2.895,5.059,5.088,10.563,6.452,16.388C557.252,134.797,586.575,128.629,616.625,124.824z"/>
		<path fill="#FFFFFF" stroke="#706F6F" stroke-width="0.25" stroke-miterlimit="10" d="M429.969,417.653l-94.016-94.016
			c-3.604,4.578-7.738,8.712-12.316,12.316l94.627,94.627C421.537,425.734,425.484,421.383,429.969,417.653z"/>
		<path fill="#FFFFFF" stroke="#706F6F" stroke-width="0.25" stroke-miterlimit="10" d="M643.346,631.029l-127.051-127.05
			c-3.729,4.483-8.082,8.431-12.928,11.703l127.662,127.663C634.633,638.767,638.767,634.633,643.346,631.029z"/>
		<circle fill="#FCEA21" stroke="#706F6F" stroke-width="0.25" stroke-miterlimit="10" cx="278.583" cy="278.583" r="59.934"/>
		<circle fill="#2FAADD" stroke="#706F6F" stroke-width="0.25" stroke-miterlimit="10" cx="157.1" cy="464.815" r="48.272"/>
		<circle fill="#2FAADD" stroke="#706F6F" stroke-width="0.25" stroke-miterlimit="10" cx="469.132" cy="464.815" r="48.272"/>
		<circle fill="#2FAADD" stroke="#706F6F" stroke-width="0.25" stroke-miterlimit="10" cx="469.132" cy="157.1" r="48.272"/>
		<circle fill="#FCEA21" stroke="#706F6F" stroke-width="0.25" stroke-miterlimit="10" cx="111.601" cy="688.399" r="59.934"/>
		<circle fill="#FCEA21" stroke="#706F6F" stroke-width="0.25" stroke-miterlimit="10" cx="688.398" cy="111.601" r="59.934"/>
		<circle fill="#FCEA21" stroke="#706F6F" stroke-width="0.25" stroke-miterlimit="10" cx="688.398" cy="688.399" r="59.934"/>
	</g>
</g>
</svg>
