<?xml version="1.0" encoding="utf-8"?><!-- Generator: Adobe Illustrator 16.0.3, SVG Export Plug-In . SVG Version: 6.00 Build 0)  --><!DOCTYPE svg PUBLIC
    "-//W3C//DTD SVG 1.1//EN" "http://www.w3.org/Graphics/SVG/1.1/DTD/svg11.dtd">
<svg version="1.1" id="Ebene_1" xmlns="http://www.w3.org/2000/svg" xmlns:xlink="http://www.w3.org/1999/xlink" x="0px" y="0px"
	 width="515.667px" height="515.668px" viewBox="0 0 515.667 515.668" enable-background="new 0 0 515.667 515.668"
	 xml:space="preserve">
<g id="Ebene_9">
	<g>
		<path fill="#33B6EA" d="M211.969,454.364c-0.39,1.071-0.487,1.268-1.852,1.268h-7.989c-1.364,0-1.461-0.195-1.851-1.268
			l-15.491-44.914c-0.097-0.195-0.39-0.975-0.487-1.656c0-0.778,0.682-0.877,2.143-1.07l8.086-0.877
			c0.292,0,1.364-0.099,1.559-0.099c0.779,0,1.072,0.976,1.364,1.948l5.943,21.921c1.072,3.897,2.533,10.522,3.118,14.127h0.195
			c0.584-3.507,2.144-10.326,3.313-14.127l6.625-21.921c0.292-1.071,0.584-1.948,1.364-1.948c0.195,0,1.267,0.099,1.559,0.099
			l6.625,0.877c1.461,0.193,2.144,0.292,2.144,1.07c-0.098,0.683-0.39,1.461-0.487,1.656L211.969,454.364z"/>
		<path fill="#33B6EA" d="M264.58,451.929c0.098,0.486,0.194,0.486,0.194,0.778c0,1.852-7.112,3.702-13.737,3.702
			c-12.568,0-12.568-9.84-12.568-18.804v-21.921h-6.917c-1.169,0-1.364-0.292-1.364-1.364v-6.333c0-1.071,0.195-1.363,1.364-1.363
			h6.917v-12.275c0-1.268,0.195-1.56,1.559-1.753l8.573-1.171c0.292,0,0.682-0.097,1.267-0.097c0.877,0,0.975,0.486,0.975,1.656
			v13.64h11.107c0.877,0,1.655,0,1.655,1.071c0,0.195,0,0.39-0.099,0.779l-1.266,5.749c-0.293,1.362-0.586,1.461-1.754,1.461h-9.646
			v23.577c0,3.118,0,5.942,3.313,5.942c3.897,0,6.333-1.852,7.697-1.852c0.39,0,0.683,0.195,0.778,0.585L264.58,451.929z"/>
		<path fill="#33B6EA" d="M334.433,453.39c0,1.072-0.193,1.364-1.361,1.364h-9.646c-1.17,0-1.365-0.292-1.365-1.364v-30.008
			c0-3.702-0.389-8.185-4.092-8.185c-4.092,0-7.307,2.825-8.574,3.995v34.196c0,1.072-0.193,1.364-1.361,1.364h-9.646
			c-1.17,0-1.364-0.292-1.364-1.364v-30.008c0-3.702-0.39-8.185-4.093-8.185c-4.092,0-7.307,2.825-8.572,3.995v34.196
			c0,1.072-0.193,1.364-1.363,1.364h-9.646c-1.171,0-1.365-0.292-1.365-1.364v-29.423c0-13.737-1.851-12.959-1.851-15.198
			c0-0.487,0.39-0.877,1.07-1.072l7.404-2.436c0.586-0.194,1.072-0.292,1.462-0.292c1.267,0,2.046,2.144,3.118,6.723
			c2.922-2.533,7.209-6.723,14.906-6.723c4.189,0,8.768,2.63,9.938,6.723c2.924-2.533,7.111-6.723,15.102-6.723
			c9.158,0,11.301,6.917,11.301,15.394V453.39L334.433,453.39z"/>
	</g>
</g>
<g id="Ebene_10">
	<g>
		<path fill="#707072" d="M121.25,51.267c0,0,5.583,58,4.625,85.229c-0.397,11.281-4.188,42.375-21.813,42.375
			c-18.979,0-21.146-22.813-44.438-22.813c-13.875,0-37.625,9.042-37.625,48.75c0,30.375,19.25,45.375,34.625,45.375
			c22.875,0,19.625-18,43.875-18c23.917,0,24.875,22.375,24.875,34.75s-3.042,47-8.875,82c4.417,0.667,11.51,1.468,23.25,5.125
			c15.917,4.959,28.125,8.875,53.625,8.875S233,353.309,233,342.309c0-17.041-15.625-14.25-15.625-34.75s20.625-30,41.25-30
			c20.625,0,41.459,9.959,41.459,34.875c0,22.5-13.084,17.125-13.084,35.75s22.375,18.125,28,18.125s61.5-1.832,87-7.041
			c-1-13.25-4.582-66.542-4.582-82.917c0-21.667,10.082-23.792,15.457-23.792c16.125,0,16.875,12.292,39.625,12.292
			c20.584,0,40.625-19.75,40.625-49.792c0-27.125-19-38.75-34.625-38.75s-20.875,13.5-47.75,13.5
			c-9.498,0-15.832-3.792-15.832-22.292c0-37.275,4.166-74.417,4.332-109.583c-18.666-2.75-66.625-10-93.125-10
			c-24.207,0-25.957,10.125-25.957,16.75c0,17.083,23.5,22.167,23.5,38.5c0,29.917-23.793,37.75-43.293,37.75
			c-17.042,0-42.458-15.583-42.458-40.083c0-12.042,3.374-15.688,6.844-19.159c5.189-5.189,11.177-8.299,11.177-16.508
			c0-14.25-14.396-16.667-31.271-16.667S121.25,51.267,121.25,51.267z"/>
		<g opacity="0.2">
			<path fill="#FFFFFF" d="M306.125,47.934c26.5,0,74.459,7.25,93.125,10c-0.166,35.167-4.332,72.309-4.332,109.583
				c0,18.5,6.334,22.292,15.832,22.292c26.875,0,32.125-13.5,47.75-13.5s34.625,11.625,34.625,38.75
				c0,30.042-20.041,49.792-40.625,49.792c-22.75,0-23.5-12.292-39.625-12.292c-5.375,0-15.457,2.125-15.457,23.792
				c0,16.375,3.582,69.667,4.582,82.917c-25.5,5.209-81.375,7.041-87,7.041c-0.287,0-0.615,0.001-0.984,0.001
				c-6.861,0-27.016-0.45-27.016-18.126c0-18.625,13.084-13.25,13.084-35.75c0-24.916-20.834-34.875-41.459-34.875
				c-20.625,0-41.25,9.5-41.25,30S233,325.268,233,342.309c0,11-14.125,20.625-39.625,20.625s-37.708-3.916-53.625-8.875
				c-11.74-3.657-18.833-4.458-23.25-5.125c5.833-35,8.875-69.625,8.875-82s-0.958-34.75-24.875-34.75c-24.25,0-21,18-43.875,18
				c-15.375,0-34.625-15-34.625-45.375c0-39.708,23.75-48.75,37.625-48.75c23.292,0,25.458,22.813,44.438,22.813
				c17.625,0,21.416-31.094,21.813-42.375c0.958-27.229-4.625-85.229-4.625-85.229s66.542-2.75,83.417-2.75
				s31.271,2.417,31.271,16.667c0,8.208-5.988,11.318-11.177,16.508c-3.47,3.47-6.844,7.117-6.844,19.159
				c0,24.5,25.417,40.083,42.458,40.083c19.5,0,43.291-7.833,43.291-37.75c0-16.333-23.5-21.417-23.5-38.5
				C280.167,58.059,281.917,47.934,306.125,47.934 M306.125,47.434c-23.451,0-26.457,9.219-26.457,17.25
				c0,8.855,6.154,14.563,12.106,20.082c5.858,5.431,11.394,10.562,11.394,18.418c0,33.62-29.926,37.25-42.793,37.25
				c-8.763,0-19.225-4.116-27.303-10.741c-9.451-7.751-14.655-17.994-14.655-28.843c0-12.108,3.405-15.514,6.697-18.806
				c1.085-1.085,2.216-2.088,3.309-3.057c4.122-3.654,8.014-7.105,8.014-13.805c0-15.127-16.06-17.167-31.771-17.167
				c-16.692,0-82.772,2.723-83.438,2.75l-0.528,0.021l0.051,0.525c0.056,0.58,5.569,58.278,4.623,85.164
				c-0.548,15.56-5.653,41.893-21.313,41.893c-8.799,0-13.929-5.046-19.36-10.388c-6.209-6.108-12.631-12.424-25.077-12.424
				c-4.252,0-15.137,0.938-24.358,9.621c-9.135,8.602-13.767,21.935-13.767,39.629c0,17.628,6.348,28.442,11.674,34.411
				c6.406,7.178,15.172,11.464,23.451,11.464c11.46,0,16.58-4.539,21.531-8.93c5.03-4.46,10.231-9.07,22.344-9.07
				c24.375,0,24.375,24.001,24.375,34.25c0,11.578-2.818,45.62-8.868,81.918l-0.083,0.501l0.502,0.075
				c0.462,0.069,0.953,0.141,1.475,0.217c4.47,0.647,11.224,1.628,21.701,4.892l0.657,0.205c15.583,4.856,27.893,8.692,53.116,8.692
				c12.11,0,22.353-2.162,29.62-6.252c6.774-3.813,10.505-9.096,10.505-14.873c0-8.332-3.602-11.997-7.415-15.877
				c-4.036-4.107-8.21-8.354-8.21-18.873c0-20.378,20.467-29.5,40.75-29.5c18.895,0,40.959,9.003,40.959,34.375
				c0,11.595-3.5,15.632-6.883,19.536c-3.189,3.679-6.201,7.153-6.201,16.214c0,7.779,3.785,13.217,11.25,16.155
				c5.621,2.215,11.975,2.471,16.264,2.471h0.557l0.43-0.001c4.451,0,60.859-1.69,87.1-7.052l0.434-0.089l-0.033-0.438
				c-0.932-12.355-4.582-66.493-4.582-82.879c0-15.455,5.033-23.292,14.959-23.292c7.229,0,11.383,2.564,15.781,5.281
				c5.32,3.285,11.35,7.011,23.844,7.011c10.402,0,20.756-5.03,28.408-13.803c8.199-9.399,12.717-22.358,12.717-36.489
				c0-12.434-4.016-22.776-11.611-29.911c-6.316-5.936-14.889-9.339-23.514-9.339c-6.883,0-11.699,2.525-17.277,5.451
				c-7.193,3.771-15.348,8.049-30.473,8.049c-9.203,0-15.334-3.706-15.334-21.792c0-19.29,1.127-38.726,2.219-57.521
				c1.047-18.047,2.035-35.093,2.115-52.061l0.002-0.435l-0.43-0.063L396.9,57.08C377.355,54.194,331.582,47.434,306.125,47.434
				L306.125,47.434z"/>
		</g>
	</g>
</g>
<g id="Ebene_5">
	<g>
		<path fill="#33B6EA" d="M395.246,253.01c0.27-2.734-1.365-4.583-2.832-6.502c-0.643-0.837-0.605-1.451,0.162-2.072
			c0.881-0.711,0.844-1.509,0.482-2.506c-0.715-1.979-2.061-3.534-3.193-5.245c-1.344-2.021-4.088-3.735-1.973-6.808
			c0.355-0.521-0.047-1.574,0.896-1.65c0.904-0.076,1.119,0.885,1.506,1.48c0.822,1.282,1.775,2.069,3.412,1.449
			c0.447-0.17,0.986-0.104,1.486-0.123c2.223-0.085,3.834-1.387,4.582-3.714c0.779-2.433,0.242-4.502-1.639-5.825
			c-0.83-0.585-1.578-1.233-2.207-2.006c-0.525-0.649-0.568-1.421,0.027-2.053c0.764-0.81,1.572-1.801,2.77-1.667
			c1.068,0.119,0.598,1.197,0.633,1.873c0.053,0.985,0.102,2.088,1.326,2.066c1.078-0.018,1.178-1.114,1.26-1.996
			c0.064-0.667-0.189-1.583,0.592-1.832c1.602-0.506,3.016-1.451,4.721-1.727c3.568-0.578,6.23-2.42,7.514-5.924
			c0.514-1.4,0.971-2.759,2-3.952c0.898-1.036,1.096-2.398,0.619-3.877c-0.684-2.116-1.891-3.933-2.977-5.818
			c-0.672-1.167-0.41-1.793,0.699-2.395c0.891-0.484,2.154-0.442,2.563-1.674c0.035-0.189,0.072-0.378,0.111-0.566l-0.072-0.469
			c-2.152,0.212-4.465,0.33-6.965,0.33c-9.498,0-15.832-3.792-15.832-22.292c0-30.716,2.824-61.339,3.912-90.844
			c-0.459,0.064-0.873,0.121-0.963,0.129c-0.471-0.294-0.939-0.589-1.41-0.885c0,0,0-0.001,0-0.002
			c0.057-0.488-0.029-1.056,0.193-1.453c0.945-1.694,1.037-3.354,0.055-5.048c-2.23-0.616-3.424,0.834-4.689,2.271
			c-1.482,1.685-2.777,3.506-3.936,5.409c-1.496,2.457-3.807,2.362-6.137,2.094c-1.678-0.194-3.182-0.269-4.436,1.181
			c-0.457,0.527-1.168,0.904-1.932,1.087c-1.789,0.426-2.865,1.688-3.596,3.281c-1.695,3.702-4.016,6.812-7.916,8.439
			c-1.141,0.476-1.566,1.31-1.479,2.522c0.07,0.935,0.018,1.876,0.014,2.813c-0.004,0.704-0.375,1.202-0.982,1.469
			c-0.639,0.277-1.092-0.16-1.443-0.598c-0.818-1.015-1.543-2.104-2.393-3.088c-0.947-1.094-2.078-1.406-3.236-0.29
			c-0.609,0.587-1.176,0.62-2.014,0.495c-1.469-0.221-2.986-0.133-4.484-0.139c-0.971-0.003-1.369,0.729-1.764,1.465
			c-1.084,2.025-1.889,4.181-3.273,6.076c-0.813,1.118-0.225,2.679-0.279,4.038c-0.086,1.994-0.342,2.18-2.229,1.416
			c-0.346-0.141-0.713-0.234-1.057-0.376c-0.875-0.363-1.67-0.719-0.756-1.875c0.438-0.555,0.275-1.274-0.313-1.663
			c-2.787-1.85-1.818-4.563-1.438-6.96c0.432-2.694,1.951-4.966,3.893-6.912c0.307-0.309,0.625-0.617,0.885-0.966
			c0.674-0.903,0.771-1.873,0.014-2.751c-0.783-0.909-1.727-0.555-2.543-0.042c-3.301,2.081-5.449,5.021-6.605,8.762
			c-0.904,2.933-0.754,5.919-0.738,8.908c0.006,1.373,1.094,1.848,2.088,2.383c0.857,0.463,1.998,0.708,1.982,1.975
			c-0.016,1.253-1.145,1.502-2.002,1.971c-0.383,0.208-0.814,0.384-1.111,0.683c-1.578,1.589-3.273,1.396-4.912,0.242
			c-1.076-0.755-1.879-0.753-2.766,0.224c-0.363,0.402-0.887,0.697-1.387,0.932c-1.932,0.896-3.805,1.858-5.131,3.61
			c-0.184,0.243-0.398,0.577-0.748,0.408c-0.455-0.22-0.234-0.611-0.135-0.966c0.719-2.45-1.293-4.758-3.861-4.45
			c-1.271,0.153-2.115,1.469-1.836,2.972c0.229,1.22,0.498,2.437,0.826,3.631c0.189,0.681,0.266,1.296-0.508,1.546
			c-0.791,0.256-1.139-0.371-1.34-0.979c-0.227-0.706-0.332-1.449-0.531-2.166c-0.166-0.594-6.02-5.959-6.646-6.133
			c-0.061-0.017-0.123-0.011-0.188-0.016c-0.025,0.076-0.271,0.04-0.627-0.057c-2.24,13.228-10.033,20.992-19.579,25.231
			c-0.134,0.21-0.271,0.386-0.425,0.473c-0.58,1.232-0.373,2.271,0.765,3.075c0.604,0.428,1.185,0.897,1.824,1.266
			c0.628,0.362,0.971,0.853,0.712,1.52c-0.448,1.147-0.262,2.321-0.283,3.488c-0.018,1.127-0.122,2.087-1.679,1.481
			c-0.624-0.242-1.073,0.063-1.354,0.64c-0.479,0.395-0.691,0.924-0.764,1.522c-0.404,0.276-0.357,0.698-0.354,1.105
			c-0.293,1.102-0.545,2.227-1.521,2.979c-0.63,0.21-1.316,0.288-1.833,0.767c-0.633,0.016-1.267,0.028-1.899,0.043
			c-0.752,0.048-1.561-0.289-2.229,0.33c-0.258,0.018-0.518,0.034-0.773,0.053c-1.367-0.092-2.762,0.105-4.096-0.376
			c-0.374-0.265-0.75-0.529-1.124-0.793c0.005-1.051,0.047-2.102,0.007-3.148c-0.033-0.879,0.342-1.905-0.738-2.483l-0.008-0.012
			c-0.523-0.892-1.047-0.833-1.568,0c-0.125,0.125-0.248,0.249-0.369,0.373c-0.547,0.857-2.334,1.323-1.568,2.526
			c1.357,2.128,1.68,3.915-0.344,5.709c-0.738,0.05-1.475,0.101-2.209,0.149c-0.102,0.088-0.204,0.177-0.305,0.264
			c-1.127,0.703-1.631,1.874-2.06,3.021c-0.329,0.881-0.942,1.505-1.604,1.995c-0.582,0.433-1.634,0.576-1.54-0.658
			c0.218-2.815-1.361-4.965-2.783-7.007c-1.056-1.521-1.577-3.261-2.023-4.825c-0.465-1.629-1.241-3.077-1.824-4.611
			c-0.494-1.306-2.2-1.399-2.564-0.149c-0.563,1.94-2.404,3.871-0.557,6.078c0.326,0.388,0.471,0.952,0.118,1.393
			c-0.373,0.464-0.901,0.259-1.384,0.104c-1.403-0.449-2.569-0.059-3.553,1.001c-0.644,0.694-1.375,1.243-2.32,1.503
			c-0.761,0.21-1.121,0.898-0.533,1.396c1.293,1.096,1.226,2.466,1.235,3.912c0.007,1.374,0.875,1.867,2.136,1.65
			c1.186-0.204,2.209-0.808,3.191-1.489c0.438-0.304,0.883-0.917,1.469-0.501c0.593,0.422,0.376,1.156,0.228,1.733
			c-0.119,0.466-0.396,0.926-0.71,1.297c-0.512,0.601-1.05,1.214-0.458,1.967c0.551,0.703,1.344,0.427,2.074,0.21
			c1.668-0.497,3.267-1.223,5.022-1.431c0.464-0.054,0.917-0.174,1.112,0.337c0.25,0.645-0.291,0.917-0.747,1.073
			c-1.177,0.402-2.385,0.704-3.56,1.104c-0.834,0.283-1.658,0.655-1.857,1.657c-0.22,1.114,0.495,1.762,1.295,2.279
			c1.159,0.75,2.042,1.64,2.085,3.114c0.1,0.625,0.201,1.251,0.303,1.876c0.085,0.671-0.076,1.23-0.715,1.571
			c-1.698,0.635-3.419,0.42-5.122,0.081c-3.549-0.709-5.808,1.404-4.804,4.8c0.252,0.851,0.453,1.883,0.045,2.57
			c-1.296,2.195-0.223,3.93,0.754,5.763c0.588,1.104,1.37,1.447,2.611,1.203c1.58-0.311,3.191-0.524,4.799-0.613
			c1.791-0.1,3.387-0.699,3.786-2.469c0.897-3.999,5-5.124,6.939-8.146c0.125-0.193,0.572-0.28,0.855-0.258
			c1.416,0.117,2.717-0.173,3.941-0.9c0.344-0.204,1.15-0.364,1,0.173c-0.396,1.402,1.271,3.163-0.742,4.266
			c-0.226,0.123-0.328,0.525-0.422,0.819c-0.227,0.69-0.197,1.344,0.355,1.908c0.617,0.629,1.387,0.586,2.102,0.378
			c0.699-0.207,1.073-0.779,1.114-1.563c0.047-0.905-0.095-1.739-0.661-2.471c-0.273-0.352-0.58-0.718-0.156-1.143
			c0.453-0.456,1.103-0.598,1.523-0.173c1.755,1.765,4.297,2.563,5.719,4.718c0.127,1.577-0.937,1.574-2.033,1.545
			c-0.586-0.016-1.111,0.119-1.267,0.782c-0.128,0.543-0.007,0.973,0.646,1.054c0.375,0.375,0.748,0.748,1.123,1.123
			c0.268,1.004,0.767,0.64,1.367,0.29c1.479-0.863,2.327-2.339,3.498-3.499c0.93-0.92,1.822-1.354,2.399,0.368
			c0.153,0.449,0.376,0.943,1.004,0.943c0.011,0.337,0.104,0.618,0.459,0.743c0.122,1.08,0.772,1.651,1.789,1.877
			c0.542,0.061,1.112,0.235,1.485-0.372c0.865-0.124,1.379-0.587,1.435-1.494c0.05-0.108,0.075-0.225,0.081-0.345
			c1.124-0.259,0.543-1.227,0.775-1.854c0.233-0.621,0.332-1.552,1.211-1.403c0.826,0.138,0.467,0.92,0.479,1.541
			c0.065,3.409,3.003,6.105,5.423,5.701c0.493,0,0.984-0.001,1.479-0.001c1.183,0.033,2.365,0.071,3.547,0.097
			c0.941,0.021,1.547,0.471,1.73,1.39c0.365,1.865-2.271,5.095-4.19,5.051c-2.802-0.063-5.673,1.639-8.41-0.336
			c-0.206-0.15-0.612-0.05-0.922-0.026c-1.289,0.093-2.509-0.204-3.581-0.871c-1.732-1.077-2.953-0.226-4.08,0.969
			c-0.418,0.445-0.684,1.037-1.018,1.562c-0.693,1.086-1.428,1.224-2.409,0.268c-0.741-0.723-1.271-1.732-2.404-1.996
			c0.031-0.577-0.5-0.748-0.79-1.094c-0.059-0.487-0.17-0.865-0.712-0.342c-0.25-0.015-0.5-0.029-0.751-0.044
			c-0.068-0.443-0.252-0.738-0.773-0.586c-0.375-0.052-0.748-0.104-1.125-0.156c-0.068-0.709-0.58-0.744-1.121-0.735
			c-0.166-0.254-0.336-0.508-0.504-0.763c0.125-0.897,0.084-1.806,0.379-2.697c0.176-0.526,0.311-1.27-0.639-1.39
			c-0.211-0.562-0.595-0.945-1.154-1.153c-0.08-0.842-0.752-0.816-1.265-0.708c-2.718,0.573-5.501,0.056-8.189,0.479
			c-1.339,0.21-3.078-0.258-4.02,1.329c-0.479,0.125-1.028,0.142-1.43,0.394c-2.17,1.363-4.457,1.729-6.95,1.11
			c-0.734-0.183-1.686-0.05-1.97,0.729c-0.892,2.455-3.495,3.992-3.62,6.854c-0.012,0.304-0.388,0.63-0.654,0.881
			c-1.637,1.539-3.124,3.223-4.88,4.653c-1.271,1.033-2.804,2.057-2.89,3.958c-0.044,0.98-0.428,1.692-1.157,2.229
			c-1.583,1.164-1.662,2.628-1.401,4.471c0.224,1.584,1.093,3.239,0.144,4.899c-1.486,2.598-1.531,4.197,0.425,6.269
			c3.04,3.221,5.598,6.84,8.698,10.016c1.951,1.999,3.984,2.362,6.437,1.544c1.589-0.529,3.325-0.772,4.784-0.202
			c1.522,0.592,2.596,0.267,3.839-0.416c1.879-1.035,3.739-1.329,5.552,0.243c1.037,0.897,2.364,1.055,3.688,1.119
			c0.681,0.032,1.356,0.002,2.034,0.222c1.316,0.428,1.846,0.965,0.748,2.238c-1.275,1.479-1.736,3.221-0.834,5.042
			c1.07,2.166,2.283,4.256,3.438,6.381c-0.146,1.139,0.406,1.99,1.02,2.895c1.348,1.982,2.084,3.986,0.695,6.42
			c-2.216,3.873-2.867,7.908-0.422,12.027c0.396,0.666,0.609,1.508,0.518,2.35c0.062,0.102,0.094,0.516,0.127,0.91
			c9.334,1.685,17.914,5.714,23.633,12.592c1.953-2.099,4.527-4.729,5.152-7.411c0.078-0.334,0.328-0.769,0.615-0.896
			c2.014-0.887,2.01-2.559,1.955-4.396c-0.043-1.336-0.602-2.931,0.416-3.988c1.57-1.639,2.863-3.666,5.221-4.43
			c0.906-0.293,1.441-1.136,1.438-2.033c-0.002-2.723,0.029-5.447-1.076-8.06c-0.736-1.741-1.891-3.473-1.33-5.512
			c1.012-3.684,3.529-6.376,6.348-8.699c4.24-3.491,7.348-7.759,9.535-12.733c0.469-1.064,1.016-2.424,0.094-3.361
			c-0.881-0.892-2.229-0.408-3.389-0.198c-2.078,0.375-4.074,1.239-6.256,0.964c-0.619-0.078-1.297,0.008-1.547-0.758
			c-0.16-0.488,0.15-0.833,0.475-1.14c0.521-0.5,1.115-0.563,1.703-0.15c1.256,0.883,2.455,0.532,3.703-0.043
			c2.689-1.234,4.832-3.479,7.512-4.545c3.006-1.195,5.582-2.71,7.717-5.119c0.824-0.927,1.818-1.698,2.48-2.783
			c0.576-0.942,0.51-1.767-0.324-2.507c-0.861-0.765-1.91-1.566-2.998-1.291c-2.359,0.597-4.564,0.394-6.77-0.495
			c-1.23-0.753-1.777-2.006-2.4-3.221c-0.799-1.56-1.645-3.083-3.705-3.276c-0.535-0.052-1.127-0.374-1.004-1.108
			c0.113-0.667,0.701-0.815,1.256-0.922c1.754-0.34,2.951,0.58,4.035,1.787c1.752,1.952,3.695,3.527,6.574,3.107
			c1.387,1.82,3.553,2.434,5.41,3.527c0.934,0.549,1.758,0.518,2.59-0.14c1.455-1.15,2.979-1.109,4.545-0.249
			c1.094,0.6,2.168,1.239,3.279,1.803c0.834,0.424,1.234,0.898,0.9,1.922c-0.42,1.295,0.414,2.246,1.512,2.317
			c2.311,0.153,2.66,1.596,2.826,3.405c0.439,4.79,2.623,8.884,5.258,12.771c0.959,1.414,2.221,1.563,3.504,0.451
			c2.076-1.797,3.029-4.201,2.697-6.848c-0.184-1.468,0.279-2.161,1.299-2.949c2.512-1.947,5.348-3.653,7.109-6.302
			c1.5-2.249,3.686-2.021,5.715-2.513c0.514-0.122,1.061,0.34,1.373,0.847c1.201,1.942,2.754,3.684,2.801,6.206
			c0.025,1.369,0.83,2.336,2.449,2.183c2.279-0.218,3.467,0.926,2.928,3.167c-1.109,4.619-0.865,8.794,3.088,12.077
			c0.141,0.112,0.225,0.302,0.303,0.47c0.219,0.459,1.143,0.813,0.574,1.355c-0.646,0.621-1.242-0.067-1.73-0.548
			c-0.844-0.833-1.637-1.722-2.521-2.513c-0.768-0.688-1.775-0.898-2.551-0.19c-0.74,0.676,0.066,1.423,0.428,1.98
			c0.777,1.194,1.855,2.162,2.623,3.394c1.781,2.854,3.686,5.636,5.514,8.46c0.285,0.439,0.637,0.742,1.084,0.994
			c3.023,1.701,5.59,4.386,9.428,4.33c0.154-0.003,0.787,0.146,1.271,0.271c0.904-1.166,1.887-2.069,2.9-2.763
			c-2.412-0.8-5.723-0.824-8.076-0.843C396.181,253.939,395.132,254.152,395.246,253.01z M248.805,156.258
			c-0.096,0.881-0.293,1.807-1.396,1.905c-0.906,0.083-1.133-0.578-1.123-1.282c-0.016-1.051,0.322-1.826,1.385-1.939
			C248.563,154.847,248.89,155.466,248.805,156.258z M278.5,183.979c-1.053-1.027-2.092-2.066-3.129-3.11
			c-0.483-0.488-0.974-0.948-1.74-0.85c-0.246-0.25-0.494-0.501-0.742-0.753c0.351-0.585-1.271-1.963,0.752-1.878
			c0.746,0.499,1.49,0.997,2.234,1.497c0.055,0.468,0.283,0.733,0.789,0.681c0.894,0.896,1.787,1.79,2.682,2.686
			c-0.055,0.5,0.205,0.727,0.677,0.766c-0.011,0.125,0.013,0.247,0.067,0.359C279.978,184.677,279.443,184.899,278.5,183.979z
			 M306.382,124.542c0.771,0.064,0.986,0.608,0.967,1.295c-0.012,0.606-0.189,1.177-0.889,1.13c-0.756-0.049-1.197-0.584-1.227-1.35
			C305.205,124.858,305.642,124.48,306.382,124.542z M298.623,181.036c-1.105,0.415-2.201,0.91-3.347,1.158
			c-1.928,0.416-3.073-0.921-2.329-2.758c0.518-1.279,1.016-2.484,1.021-3.918c0.006-1.313,1.186-1.392,2.207-1.52
			c1.656,0.315,3.527,0.159,4.189,2.368c0.242,0.808,1.113,1.118,1.908,1.371c1.758,0.561,3.273,1.5,4.473,2.926
			c0.311,0.373,0.803,0.709,0.496,1.279c-0.254,0.475-0.814,0.404-1.18,0.28c-1.432-0.484-3.057-0.002-4.398-1.194
			C300.896,180.35,299.654,180.648,298.623,181.036z M308.689,226.039c-0.217-1.417-1.541-2.061-2.229-3.166
			c-1.67-2.678-2.623-5.649-3.766-8.534c-0.762-1.919-1.615-3.775-2.51-5.629c-0.268-0.559-1.051-1.239-0.217-1.79
			c0.787-0.521,1.162,0.446,1.633,0.858c1.146,1.004,1.914,2.285,2.576,3.639c2.1,4.293,4.193,8.584,6.291,12.877
			C310.398,225.41,310.818,227.026,308.689,226.039z M320.189,187.722c-0.127-0.856-0.043-1.741-0.074-2.613
			c-0.02-0.535,0.141-1.179-0.662-1.329c-0.021-0.642-0.041-1.284-0.063-1.925c0.646-0.578,0.004-1.032-0.219-1.432
			c-0.922-1.646-1.42-3.379-1.35-5.269c0.35-0.48,0.572-1.084,1.24-1.248c1.357-0.21,2.656-1.011,4.094-0.4
			c0.17,0.173,0.34,0.346,0.51,0.519c-0.184,0.862-0.98,0.86-1.588,1.082c-0.998,0.366-2.098,0.635-2.213,1.938
			c-0.117,1.331,0.059,2.596,1.393,3.35c0.057,0.972,0.977,1.448,1.299,2.267c0.107,0.08,0.27,0.164,0.385,0.247
			c-0.115-0.083-0.279-0.167-0.387-0.248c-0.029,0.987-0.213,2-0.057,2.958c0.227,1.399,0.197,2.991,1.74,3.818
			c0.004,0.226,0.008,0.454,0.01,0.681C321.88,190.938,320.552,190.18,320.189,187.722z M352.781,101.823
			c-0.613,0.174-0.676-0.389-0.668-0.843c0.014-0.862,0.467-1.413,1.299-1.583c0.498-0.102,0.85,0.131,0.855,0.836
			C354.134,100.99,353.593,101.591,352.781,101.823z M360.394,121.037c-0.836-0.154-1.857-0.271-1.896-1.619
			c-0.02-0.702,0.248-1.289,1.025-1.225c1.094,0.091,2.082,0.504,2.215,1.779C361.82,120.747,361.263,121.034,360.394,121.037z"/>
		<path fill="#33B6EA" d="M93.814,179.34c-1.706,2.358-1.584,4.791-0.422,7.328c0.216,0.473,0.128,1.096,0.14,1.648
			c0.012,0.53,0.087,0.992,0.696,1.146c0.023,0.224,0.048,0.447,0.073,0.67c-0.035,0.501,0.233,0.733,0.7,0.789
			c-0.002,0.117,0.018,0.229,0.06,0.34c-0.044,0.5,0.223,0.73,0.686,0.794c-0.004,0.115,0.017,0.228,0.064,0.333
			c-0.04,0.495,0.225,0.727,0.685,0.79c0.569,2.029,1.965,3.702,3.591,4.625c2.341,1.327,3.17,3.387,4.038,5.569
			c1.73,4.353,4.99,7.727,7.404,11.641c0.451,0.729,1.259,0.854,2,0.49c0.891-0.437,0.428-1.17,0.221-1.796
			c-0.615-1.875-1.808-3.398-2.975-4.945c-0.789-1.042-1.545-2.111-2.262-3.205c-0.258-0.392-0.66-1.015-0.107-1.325
			c0.593-0.332,0.803,0.369,1.015,0.795c0.272,0.549,0.338,1.176,0.827,1.648c1.913,1.852,3.758,3.763,5.54,5.753
			c1.688,1.886,2.903,3.788,3.343,6.305c0.237,1.353,0.563,3.116,2.124,3.514c3.487,0.885,6.537,3.077,10.114,3.488
			c2.978,0.343,5.79,0.759,7.92,3.106c0-0.002,0.119,0.026,0.119,0.026l0.124-0.005c0.434,0.831,1.238,0.878,2.029,0.952
			c1.653,0.549,2.838,1.668,3.763,3.104c0,1.154,0.038,2.284,1.476,2.626c0.127,0.295,0.373,0.398,0.672,0.418
			c0.92,1.306,2.401,1.334,3.756,1.597c1.092,0.211,2.289,0.851,3.188-0.445c0.333-0.055,0.662-0.109,0.994-0.163
			c0.863,0.201,1.09,0.786,1.195,1.62c0.182,1.473-0.4,2.768-0.726,4.125c-0.034,0.227-0.071,0.454-0.106,0.681
			c-1.02,0.439-1.209,1.381-1.407,2.319c-0.445,1.549-1.806,2.344-2.823,3.421c-1.604,1.693-1.741,5.729-0.293,7.542
			c1.949,2.449,3.878,4.975,4.717,8.018c1.028,3.724,2.847,6.558,6.74,7.699c0.459,0.136,0.854,0.515,1.254,0.81
			c1.115,0.836,1.771,1.881,1.688,3.352c-0.066,1.185,0.026,2.375-0.001,3.563c-0.102,4.77,0.383,9.612-1.738,14.137
			c-0.151,0.324-0.15,0.731-0.174,1.104c-0.282,4.343-0.523,8.687-2.435,12.726c-0.496,1.051-0.275,2.07,0.717,2.842
			c0.463,0.359,0.862,0.861,0.45,1.445c-0.869,1.229-0.656,2.893-1.749,4.055c-0.528,0.562-0.446,1.365-0.066,2.113
			c1.585,3.117,1.051,6.018-0.965,8.746c-0.563,0.758-1.133,1.563-1.134,2.521c-0.001,2.562-0.542,5.078-0.454,7.652
			c0.146,4.271,1.943,6.373,6.126,6.85c1.311,0.148,1.753,0.951,1.127,2.051c-1.432,2.515-0.319,4.349,2.641,4.353
			c1.625,0.006,3.253,0.063,4.874-0.021c0.921-0.049,2.165,0.552,2.67-0.694c0.541-1.332-0.38-2.242-1.318-3.023
			c-0.427-0.354-0.907-0.66-1.399-0.92c-4.346-2.287-5.139-7.1-1.722-10.518c0.221-0.224,0.442-0.443,0.662-0.664
			c2.563-2.588,2.61-3.379,0.144-5.979c-0.701-0.735-0.833-1.258-0.063-2.02c1.855-1.828,2.749-4.287,4.099-6.451
			c0.457-0.732,0.617-1.471-0.071-2.226c-0.997-1.094-0.375-1.522,0.767-1.616c1.008-0.078,1.805-0.648,1.868-1.541
			c0.142-2.052,1.452-2.138,2.995-2.222c3.324-0.176,5.661-3.231,4.886-6.424c-0.296-1.219,0.276-1.526,1.219-1.477
			c1.463,0.084,2.464-0.604,3.424-1.592c1.101-1.138,2.03-2.373,2.694-3.802c1.525-3.276,2.92-6.629,4.58-9.838
			c1.802-3.485,4.638-5.836,8.373-7.248c2.516-0.951,4.089-3.074,5.102-5.561c1.271-0.906,1.198-2.379,1.39-3.652
			c0.419-2.809,0.519-5.668,2.485-7.994c0.746-0.883,1.661-1.703,1.73-2.989c0.002,0.002,0.004,0.018,0.004,0.018
			c3.726-2.994,3.392-7.268-0.728-9.383c-0.555-0.285-1.118-0.572-1.609-0.947c-1.106-0.842-2.373-1.109-3.681-1.51
			c-2.895-0.89-5.997-1.268-8.524-3.365c-1.421-1.179-3.381-1.958-5.383-0.799c-0.28,0.163-0.592,0.3-0.868,0.082
			c-0.367-0.29-0.272-0.689-0.045-1.004c0.651-0.902,0.796-1.831,0.168-2.78c-1.784-2.698-4.088-4.774-7.349-5.379
			c-1.571-0.292-2.796-0.957-3.861-2.076c-1.94-2.04-4.012-3.892-6.441-5.387c-1.589-0.977-3.023-1.066-4.557-0.236
			c-1.591,0.86-2.893,0.529-4.002-0.777c-1.394-1.641-3.036-2.747-5.231-1.918c-1.903,0.722-4.381,1.258-5.368,2.713
			c-1.152,1.698-2.973,2.544-4.003,4.263c-0.972,1.624-2.731,1.363-4.224,0.847c-1.457-0.503-2.283-1.657-2.287-3.31
			c-0.003-1.256,0.165-2.481,0.328-3.72c0.251-1.925-0.579-2.966-2.484-2.829c-3.292,0.234-3.28-1.115-3.009-3.83
			c0.056-0.551,0.246-1.096,0.414-1.63c0.246-0.783,0.586-1.604-0.186-2.25c-0.771-0.646-1.723-0.758-2.662-0.456
			c-1.287,0.406-2.381,1.17-3.1,2.311c-1.215,1.929-3.086,1.316-4.753,1.252c-1.539-0.062-2.118-1.258-2.529-2.613
			c-0.681-2.243-0.843-4.521-0.796-6.842c0.065-3.192,2.056-5.158,5.304-5.163c1.924-0.003,3.772,0.02,5.656-0.858
			c1.979-0.922,4.207-0.07,6.221,0.388c1.286,0.292,1.138,2.078,1.626,3.195c0.645,1.479,1.116,3.007,2.659,3.944
			c1.359,0.824,2.084,0.355,2.665-0.856c0.432-0.904,0.417-1.831-0.082-2.697c-0.588-1.024-1.249-2.012-1.865-3.021
			c-1.183-1.939-1.023-3.307,0.598-4.986c0.3-0.312,0.687-0.535,1.015-0.82c1.845-1.596,3.589-3.285,5.042-5.262
			c0.319-0.435,0.599-0.91,0.35-1.373c-0.656-1.223,0.164-1.848,0.898-2.531c1.067-0.994,2.344-2.125,2.094-3.585
			c-0.365-2.126,0.964-1.979,2.192-2.172c0.675-0.104,1.39-0.043,2.03-0.243c0.982-0.304,1.593-0.898,0.652-1.901
			c-1.267-1.35-0.342-1.936,0.814-2.461c1.816-1.931,2.465-1.966,5.748-0.321c1.133-0.012,2.329,0.277,3.267-0.68
			c0.802-1.007,1.305-2.014,0.12-3.111c-0.639-0.594-1.261-1.214-1.854-1.858c-0.715-0.777-1.047-1.675-0.728-2.753
			c0.723-2.417,0.104-3.102-2.417-2.744c-0.654,0.095-1.353,0.735-2.053-0.054c0.759-0.761,1.408-1.534,2.515-1.591
			c2.115,0.008,4.232,0.017,6.348,0.027c0.262-0.002,0.523,0,0.784,0c0.621,0.068,1.305,0.286,1.514-0.634
			c1.638-1.122,2.602-3.08,4.743-3.623c0.841-0.214,0.969-1.193,0.906-2.045c0.345-0.271,0.334-0.517-0.053-0.734
			c-0.628-2.905-2.213-4.493-4.511-4.517c-0.851-0.798-1.064-2.121-2.203-2.683c-0.022-0.235-0.047-0.47-0.071-0.704
			c-0.782-3.359-2.929-6.136-4.01-9.376c-0.262-0.783-1.085-1.031-1.827-0.301c-0.713,0.699-1.398,1.427-2.123,2.116
			c-0.575,0.548-1.166,1.346-2.051,0.955c-0.88-0.39-1.432-1.243-1.533-2.224c-0.102-0.989-0.058-1.996-0.057-2.995
			c0.001-0.706-0.055-1.423-0.609-1.902c-2.555-2.202-5.307-3.844-8.903-3.568c-2.9,0.222-4.174,2.229-2.822,4.72
			c0.417,0.771,0.913,1.515,0.312,2.43c-1.784,2.716-1.021,5.326,0.358,7.903c0.022,0.251,0.047,0.501,0.07,0.751
			c-0.005,1.195,0.003,2.36-1.133,3.19c-2.563,1.871-2.831,4.269-1.689,7.097c0.701,1.733,0.167,2.368-1.699,2.465
			c-0.172-0.995-0.931-1.583-1.563-2.261c0.005-0.063,0.017-0.124,0.013-0.188c-0.327-5.265-0.947-7.05-6.288-6.572
			c-1.982,0.178-3.609-1.082-4.253-2.993c-0.946-2.8-3.123-4.482-5.381-6.083c-1.199-0.852-1.708-1.763-0.859-3.146
			c0.682-1.11,1.093-2.472,1.989-3.351c1.843-1.808,3.003-4.54,6.124-4.785c0.762-0.059,1.512-0.781,1.463-1.514
			c-0.154-2.252,0.83-4.151,1.396-6.21c0.481-1.749,1.281-2.369,2.799-2.667c0.608-0.12,1.217-0.296,1.787-0.538
			c2.755-1.163,3.647-3.313,2.573-6.21c-0.227-0.616-0.43-1.346-0.125-1.818c1.141-1.772-0.008-2.925-0.978-4.118
			c-0.372-0.458-0.743-1.183-1.444-1.036c-0.811,0.17-1.112,0.969-1.326,1.688c-0.336,1.133-0.543,2.307-0.9,3.432
			c-0.221,0.699-0.503,1.539-1.481,1.407c-1.048-0.141-0.637-1.048-0.693-1.661c-0.076-0.833,0.005-1.694-1.268-1.575
			c-2.749,0.261-4.019-0.885-3.993-3.64c0.017-1.795-0.311-3.505-1.309-4.991c-1.952-2.909-2.811-2.883-4.622,0.027
			c-0.294,0.473-0.591,0.962-0.782,1.482c-0.506,1.382-0.848,2.877,0.085,4.134c0.978,1.313,1.589,2.828,2.558,4.127
			c0.648,0.87,1.173,1.776,0.014,2.563c-0.993,0.674-1.935,0.442-2.872-0.373c-1.309-1.138-1.373-2.563-1.319-4.099
			c0.035-1.013,0.007-2.184-1.106-2.549c-0.996-0.326-1.688,0.589-2.352,1.243c-0.222,0.218-0.455,0.447-0.595,0.718
			c-0.531,1.019-0.939,1.937,0.7,2.451c1.341,0.422,1.329,1.385,0.646,2.516c-0.387,0.64-2.091,1.16-3.653,1.585
			c0.201,6.693,0.251,12.89,0.072,18.001c-0.397,11.281-4.188,42.375-21.813,42.375c-4.042,0-7.318-1.041-10.201-2.669
			c-0.001,1.048-0.005,1.793-0.013,1.929C94.132,178.542,94.079,178.972,93.814,179.34z M156.285,178.357
			c0.168-1.072,0.971-1.334,1.93-1.298c0.81-0.002,1.401,0.328,1.253,1.202c-0.209,1.245-1.278,0.906-2.095,0.957
			C156.781,179.251,156.159,179.164,156.285,178.357z M146.371,177.911c-0.633,0.987-0.721,2.082-0.744,3.211
			c-0.016,0.749-0.465,1.16-1.214,1.071c-0.791-0.092-0.966-0.668-0.848-1.363c0.199-1.28,0.354-2.567,0.61-3.835
			c0.204-1.016,1.047-1.594,1.92-1.267C147.172,176.131,146.886,177.11,146.371,177.911z M155.749,180.521
			c-0.25,1.05-1.095,1.639-2.121,1.965c-0.645,0.204-1.166-0.188-1.137-0.84c0.058-1.225,0.855-1.853,2.027-1.972
			C155.061,179.619,155.684,179.582,155.749,180.521z M142.313,170.602c0.336-0.354,0.638-0.583,0.929-0.688
			C142.951,170.019,142.649,170.248,142.313,170.602c0.861,0.001,1.722,0.003,2.583,0.004c1.124,0.073,1.833,0.911,2.241,1.711
			c0.922,1.804,2.427,2.109,4.169,2.105c0.161,0.288,0.421,0.34,0.718,0.3c0.799,0.305,2.016,0.674,1.75,1.545
			c-0.41,1.333-1.806,1.987-3.063,2.577c-0.152,0.071-0.365,0.012-0.55,0.013c-0.235-0.236-0.468-0.476-0.702-0.713
			c-0.409-2.105-3.118-4.506-5.168-4.529c-1.297-0.015-2.596,0.051-3.894,0.08c-0.017,0.188-0.042,0.396-0.188,0.478
			c0.146-0.081,0.172-0.29,0.188-0.479c-0.235-0.019-0.472-0.036-0.708-0.054l-0.032-0.032c-0.013-0.36-0.026-0.721-0.039-1.081
			C140.217,171.465,141.12,170.831,142.313,170.602z"/>
		<path fill="#33B6EA" d="M261.123,144.733c0.373,1.167,1.229,2.144,2.688,2.289c1.512,0.152,2.291-0.697,2.886-1.896
			c0.278-0.557,0.534-1.142,0.909-1.626c0.363-0.467,0.764-1.146,1.492-0.882c0.693,0.25,0.421,0.968,0.4,1.488
			c-0.09,2.453,0.017,4.823,1.479,6.976c1.228,1.811,2.933,2.129,4.505,0.592c1.049-1.024,1.564-2.347,1.936-3.764
			c0.381-1.474,0.457-3.054,1.633-4.271c1.972-2.035,1.617-3.884-0.616-5.247c-5.669,1.75-11.687,2.479-17.375,2.532
			C260.507,141.762,260.603,143.113,261.123,144.733z"/>
		<path fill="#33B6EA" d="M288.996,78.165c1.332-0.097,2.771,1.13,3.922,0.059c1.434-1.339,2.813-2.797,3.685-4.624
			c0.63-1.326,0.272-2.284-1.062-2.873c-2.209-0.976-4.162-2.148-6.929-2.062c-2.282,0.071-3.606,0.396-4.562,2.35
			c-0.131,0.27-1.159,1.218-1.854,1.882c0.958,1.86,2.197,3.577,3.603,5.202C287.152,78.135,288.642,78.19,288.996,78.165z"/>
		<path fill="#33B6EA" d="M226.581,124.819c-0.941-0.525-2.057-0.161-3.043-0.691c-1.795-0.962-2.925-0.21-2.789,1.82
			c0.186,2.794,0.175,5.723,3.674,6.771c0.792,0.236,1.234,1.312,2.26,1.1c1.938-0.399,3.894-0.721,5.758-1.435
			c0.208-0.08,0.818-0.639,1.528-1.352c-2.45-1.883-4.744-4.013-6.791-6.373C226.892,124.826,226.671,124.906,226.581,124.819z"/>
		<path fill="#33B6EA" d="M131.975,94.741c0.444-0.877,1.002-2.652-0.867-3.268c-0.695-0.229-1.457-0.282-2.194-0.357
			c-1.839-0.187-2.837,0.975-2.519,2.802c0.162,0.938,0.574,2.051-0.906,2.403c0.016,0.523,0.032,1.046,0.046,1.567
			c0.604,0.093,0.618,0.566,0.568,0.996c-0.188,1.614,0.621,2.901,1.407,4.156c1.179,1.878,3.376,2.004,4.869,0.364
			c1.631-1.793,1.691-3.727,0.192-5.732C131.921,96.802,131.278,96.12,131.975,94.741z"/>
		<path fill="#33B6EA" d="M418.878,250.344c-0.58-0.945-1.154-1.913-1.172-3.109c-0.01-0.604-0.496-1.006-1.076-1.159
			c-0.678-0.181-1.225-0.494-1.055-1.269c0.186-0.843,0.965-0.967,1.643-0.892c1.045,0.115,2.066,0.415,3.105,0.594
			c0.652,0.112,1.104-0.193,1.203-0.863c0.105-0.725-0.307-0.997-0.98-1.04c-1.48-0.092-3.066-0.065-4.389,0.274
			c-1.26,0.325-2.68,1.541-2.898,3.136c-0.324,2.396,0.959,4.755,2.652,5.401c0.432,0.166,0.83,0.826,1.006,1.429
			c0.711,0.104,1.385,0.242,2.035,0.399C419.162,252.391,419.357,251.125,418.878,250.344z"/>
		<path fill="#33B6EA" d="M424.419,194.958c1.324,0.021,2.738-1.396,3.01-2.866c0.201-1.085-0.424-2.828-0.986-4.153
			c-1.719,0.448-3.561,0.833-5.545,1.136c0.57,0.979,1.146,2.499,1.326,3.357C422.486,193.688,422.794,194.931,424.419,194.958z"/>
		<path fill="#33B6EA" d="M443.439,181.242c2.627,1.035,5.447-0.266,6.488-2.99c-0.137,0.012-0.25-0.129-0.359-0.345
			c-2.119,0.762-4.143,1.739-6.213,2.807C443.509,180.945,443.576,181.138,443.439,181.242z"/>
		<path fill="#33B6EA" d="M470.48,257.766c0.164-0.756,0.027-1.41-0.898-1.478c-0.906-0.063-1.16,0.547-1.145,1.326
			c0.01,0.633,0.078,2.023,0.129,3.143c0.615-0.322,1.227-0.664,1.83-1.023C470.38,258.961,470.416,258.062,470.48,257.766z"/>
		<path fill="#33B6EA" d="M124.979,66.436c-0.258-1.046-0.754-1.981-2.065-2.01c-0.169,0.05-0.329,0.107-0.479,0.172
			c0.095,1.128,0.193,2.309,0.294,3.542c0.091,0.01,0.176,0.023,0.273,0.028C124.496,68.493,125.318,67.813,124.979,66.436z"/>
		<path fill="#33B6EA" d="M168.799,219.878c-0.905-0.421-1.85-0.767-2.714-1.256c-1.137-0.646-2.152-1.509-3.52-0.372
			c-0.437,0.361-1.041-0.047-1.516-0.416c-2.75-2.133-6.473-1.997-9.315-3.948c-0.254-0.176-0.732-0.025-1.107-0.025
			c0-0.012,0-0.023,0-0.037c-0.25,0-0.5-0.012-0.75,0.002c-1.147,0.068-3.129,1.632-2.944,2.438
			c0.352,1.528,1.672,1.132,2.752,1.247c1.194,0.13,2.501-0.478,3.569,0.566c2.037,1.991,4.587,2.827,7.341,3.133
			c0.62,0.07,1.018,0.385,1.438,0.77c2.632,2.403,4.277,2.487,7.04,0.39C170.322,221.422,170.227,220.545,168.799,219.878z"/>
		<path fill="#33B6EA" d="M172.526,221.396c-0.69,0.008-1.145,0.479-1.202,1.146c-0.062,0.699,0.445,0.953,1.072,0.923
			c0.664-0.03,0.961-0.442,0.981-1.046C173.353,221.827,173.105,221.386,172.526,221.396z"/>
		<path fill="#33B6EA" d="M319.966,261.688c-0.795-0.379-1.451,0.174-1.988,0.688c-1.174,1.125-2.113,2.623-3.479,3.39
			c-4.676,2.625-2.58,7.69-4.314,11.346c-0.16,0.332,0.188,0.967,0.406,1.408c0.779,1.561,1.836,3.01,3.695,3.076
			c1.83,0.069,2.473-1.632,2.879-3c0.99-3.316,1.771-6.697,2.547-10.068c0.375-1.635,0.551-3.314,0.791-4.824
			C320.425,262.889,320.748,262.057,319.966,261.688z"/>
		<path fill="#33B6EA" d="M217.104,83.273c0.8-1.035,1.484-2.144,1.934-3.391c0.387-1.07,0.337-2.037-0.775-2.559
			c-1.148-0.539-1.893,0.062-2.341,1.141c-0.142,0.347-0.292,0.701-0.51,1c-0.545,0.742-1.211,1.933-2.149,1.274
			c-0.96-0.673,0.181-1.482,0.629-2.149c0.947-1.413,0.593-2.33-1.092-2.522c-0.876-0.101-1.518-0.354-1.42-1.318
			c0.186-1.802-0.82-2.578-2.342-3.081c-0.637-0.209-1.347-0.532-1.755-1.026c-1.315-1.586-2.982-1.936-4.862-1.659
			c-2.325-0.292-4.409,0.191-5.995,1.964c-2.832,3.163-6.6,4.367-10.573,5.123c-2.216,0.422-3.315,1.563-3.448,3.885
			c-0.037,0.646-0.472,1.021-0.913,1.348c-0.599,0.442-1.239,0.848-1.909,1.172c-2.484,1.207-2.587,1.982-0.995,4.132
			c0.771,1.042,0.616,1.911-0.267,2.816c-1.222,1.26-2.806,1.81-4.368,2.427c-1.457,0.574-1.53,1.694-1.024,2.915
			c0.234,0.566,0.849,0.874,1.372,1.233c1.417,0.975,1.37,1.426-0.127,2.276c-0.752,0.427-1.403,0.894-0.775,1.909
			c1.297,2.095,3.563,3.065,6.045,2.575c0.854-0.167,1.714-0.297,2.572-0.449c1.823-0.325,3.028,0.374,3.574,2.156
			c0.873,2.861,1.535,5.741,1.095,8.775c-0.191,1.32-0.365,2.7,1.569,2.991c0.705,0.105,0.71,0.679,0.337,1.133
			c-0.939,1.145-0.242,1.661,0.737,2.089c1.018,0.445,1.09,0.944,0.354,1.827c-1.15,1.374-1.618,2.985-1.634,4.842
			c-0.036,3.965,1.706,7.363,3.151,10.864c0.233,0.569,0.728,1.032,1.324,1.275c4.189,1.711,4.195,1.707,5.881-2.587
			c0.206-0.521,0.481-1.063,0.494-1.603c0.063-2.558,1.508-4.042,3.553-5.366c3.229-2.089,5.229-5.659,9.298-6.935
			c2.404-0.753,2.173-1.906-0.042-3.576c-0.387-0.292-0.897-0.662-0.427-1.215c0.488-0.573,0.889-0.104,1.231,0.262
			c0.362,0.385,0.553,1.093,1.297,0.728c0.771-0.377,0.973-1.058,0.945-1.88c-0.023-0.726-0.334-1.334-0.674-1.924
			c-0.749-1.298-0.615-2.494,0.31-3.637c0.51-0.629,1.036-1.246,1.515-1.896c1.802-2.438,1.575-4.376-0.714-6.415
			c-0.363-0.324-0.86-0.627-0.772-1.204c0.109-0.717,0.742-0.551,1.203-0.559c0.875-0.014,1.007-0.551,0.996-1.249
			c-0.012-0.626,0.019-1.251-0.001-1.876c-0.02-0.536,0.141-1.198-0.651-1.347c-0.667-0.124-1.049,0.263-1.305,0.824
			c-0.302,0.667-0.707,1.32-1.541,0.893c-0.934-0.479-0.716-1.352-0.429-2.14c0.335-0.919,1.127-1.483,1.78-2.146
			c0.702-0.71,0.813-1.273-0.297-1.613c-0.647-0.198-1.094-0.581-1.276-1.241c-0.321-1.173,0.466-2.55,1.663-2.71
			c1.413-0.189,1.623,0.789,1.649,1.898c0.009,0.4-0.185,0.936,0.375,1.119c0.154,0.05,0.581-0.191,0.579-0.298
			c-0.01-1.228,1.162-2.52-0.058-3.674C215.78,85.646,216.16,84.495,217.104,83.273z"/>
		<path fill="#33B6EA" d="M179.837,120.635c-2.297-1.378-5.719-2.322-4.344-5.646c0.507-2.175-0.573-3.014-1.521-3.574
			c-1.982-1.172-3.397-2.92-5.096-4.375c-1.2-1.027-2.345-2.187-4.217-2.121c-2.664,0.094-2.813-0.167-3.258-2.88
			c-0.208-1.269-0.78-2.033-2.157-1.095c-0.455,0.309-0.956,0.383-1.411,0.096c-1.38-0.866-2.649-0.941-3.866,0.313
			c-1.501,1.548-2.821,3.436-2.096,5.489c0.81,2.292,2.023,4.604,4.287,5.984c1.049,0.639,1.688,1.441,1.522,2.744
			c-0.171,1.348,0.573,2.011,1.813,2.083c1.171,0.068,1.609-0.607,1.616-1.772c0.009-1.158,0.795-1.595,1.901-1.561
			c2.297,0.069,4.733,2.068,5.121,4.221c0.504,2.79-0.979,6.598-2.988,7.338c-0.823,0.303-1.671,0.416-1.388,1.528
			c0.256,1.017,1.101,1.327,2.054,1.202c1.602-0.209,2.759,0.558,3.799,1.61c0.922,0.933,1.743,1.98,2.748,2.811
			c1.001,0.825,2.11,2.061,3.449,0.348c0.128-0.165,0.433-0.266,0.658-0.27c0.875-0.018,1.813,0.129,2.124-1.023
			c0.345-1.268-0.021-2.328-0.951-3.232c-0.898-0.872-1.782-1.758-2.646-2.66c-0.415-0.436-0.698-1.063-0.194-1.493
			c0.614-0.525,0.964,0.109,1.29,0.576c0.463,0.666,0.901,1.386,1.844,1.423c1.105,0.045,3.584-1.531,3.744-2.433
			C181.963,122.616,181.403,121.571,179.837,120.635z"/>
		<path fill="#33B6EA" d="M157.557,86.107c-0.893,1.163-0.663,1.946,0.333,2.676c1.527,1.117,3.277,1.849,5.104,2.232
			c1.326,0.277,2.81-0.292,2.812-1.736c0.003-1.724,0.936-2.612,1.962-3.602c1.189-1.15,2.051-2.518,2.602-4.063
			c0.25-0.703,0.601-1.231,1.331-1.431c1.511-0.41,2.599-1.409,3.672-2.484c1.137-1.14,2.104-2.49,3.663-3.158
			c0.614-0.263,0.876-0.697,0.373-1.32c-0.413-0.511-0.495-1.358,0.099-1.407c2.866-0.23,2.185-1.752,1.429-3.417
			c-0.118-0.26-0.042-0.619-0.018-0.931c0.091-1.14-0.464-1.965-1.11-2.866c-1.891-2.635-4.783-1.923-7.165-2.443
			c-0.961,0.141-1.869-0.222-2.556,0.265c-2.417,1.705-5.235,2.623-7.774,4.073c-0.632,0.361-1.286,0.88-1.2,1.766
			c0.088,0.909,0.738,1.436,1.515,1.737c1.547,0.6,3.055,1.415,4.836,0.847c0.535-0.171,1.145-0.012,1.385,0.648
			c0.119,0.328,0.017,0.645-0.301,0.796c-1.338,0.643-2.648,1.646-4.045,1.792c-1.783,0.189-2.062,0.982-1.942,2.425
			c0.05,0.62-0.044,1.255,0.019,1.873c0.153,1.534-0.129,2.725-1.923,3.044c-0.495,0.09-0.951,0.523-0.999,1.027
			C159.513,84.003,158.398,85.012,157.557,86.107z"/>
		<path fill="#33B6EA" d="M152.884,77.528c-0.429,1.846,1.912,3.921,3.456,3.26c1.558-0.667,3.551-3.911,3.501-5.78
			c-0.104-0.343-0.147-0.813-0.369-1.168c-0.75-1.197-0.961-2.493-1.141-3.88c-0.238-1.819-1.496-3.13-3.053-4.043
			c-1.273-0.748-2.296-0.46-2.746,1.055c-0.708,2.383-0.803,4.812-0.008,7.166C152.91,75.282,153.177,76.269,152.884,77.528z"/>
		<path fill="#33B6EA" d="M154.511,87.379c-0.448-0.894-4.153-2.092-4.979-1.511c-1.591,1.12-2.899,0.739-4.143-0.542
			c-0.869-0.894-1.742-1.784-2.648-2.639c-0.882-0.833-1.917-1.371-3.568-1.415c-0.545-0.048-1.463,0.136-1.679,1.163
			c-0.231,1.102,0.811,1.245,1.542,1.503c1.932,0.68,3.007,1.995,2.839,4.063c-0.128,1.554,0.396,2.189,1.969,1.993
			c0.858-0.108,1.543,0.375,2.201,0.872c0.796,0.597,1.755,0.897,2.642,0.507c1.182-0.523,2.365-0.643,3.621-0.693
			C153.635,90.624,155.032,88.417,154.511,87.379z"/>
		<path fill="#33B6EA" d="M135.405,62.536c-0.487-0.039-0.896-0.254-1.072-0.639c-0.813-1.791-2.86-1.762-4.157-2.856
			c-0.55-0.463-1.419-0.317-2.049,0.291c-0.659,0.641-0.264,1.234,0.002,1.867c0.529,1.257,1.607,2.044,2.522,2.96
			c0.712,0.71,1.04,1.299,0.219,2.204c-0.656,0.721,0.689,3.457,1.694,3.608c0.516,0.077,0.921-0.179,0.989-0.642
			c0.251-1.678,0.935-1.223,1.814-0.463c0.778,0.675,1.502,0.46,1.58-0.553c0.09-1.178,0.623-2.294,0.438-3.375
			C137.395,62.709,137.396,62.697,135.405,62.536z"/>
		<path fill="#33B6EA" d="M145.415,93.232c-0.57-0.247-1.138-0.504-1.727-0.699c-2.589-0.854-4.123,0.147-4.369,2.852
			c-0.039,0.433-0.005,0.871-0.005,1.219c-0.163,2.235,0.82,4.215,0.924,6.333c0.027,0.562,0.41,1.271,1.211,1.177
			c0.692-0.082,1.225-0.628,1.133-1.274c-0.245-1.704,0.827-2.629,1.86-3.635c0.857-0.832,1.458-1.852,1.982-2.919
			C147.088,94.934,146.887,93.87,145.415,93.232z"/>
		<path fill="#33B6EA" d="M135.176,83.364c-1.252-1.275-1.979,0.143-2.852,0.625c-0.475,0.263-0.822,0.848-1.461,0.532
			c-0.613-0.305-0.459-0.938-0.557-1.481c-0.291-1.616,0.609-3.013,0.789-4.536c0.045-0.864-0.208-1.648-0.796-2.237
			c-0.736-0.735-1.932-1.169-2.682-0.755c-0.937,0.52,0.273,1.219,0.485,1.85c0.246,0.734,0.572,1.503-0.053,2.094
			c-0.812,0.767-1.315-0.101-1.855-0.562c-0.378-0.323-0.761-0.793-1.288-0.429c-0.47,0.324-0.335,0.927-0.254,1.394
			c0.222,1.281,1.568,1.737,2.137,2.736c1.48,2.606,3.672,3.894,6.633,4.132c1.091,0.086,2.387,0.797,3.052-0.371
			C137.194,85.094,135.996,84.2,135.176,83.364z"/>
		<path fill="#33B6EA" d="M149.353,126.215c-1.273-0.751-1.826,0.549-2.627,1.147c-1.37,1.023-1.145,2.256-0.409,3.445
			c0.687,1.111,1.582,1.833,3.092,1.142c0.937-0.427,2.023-0.547,3.052-0.749c0.637-0.125,1.021-0.411,1.059-1.093
			C153.079,127.81,151.014,127.196,149.353,126.215z"/>
		<path fill="#33B6EA" d="M153.201,94.265c-0.024,1.688,1.389,2.757,3.699,2.796c2.291,0.039,3.372-0.68,3.388-2.247
			c0.022-2.104-1.114-3.339-3.086-3.358C155.042,91.435,153.223,92.712,153.201,94.265z"/>
		<path fill="#33B6EA" d="M141.812,71.47c1.313,0.771,2.33,0.174,2.345-1.456c-0.008-0.115,0.025-0.32-0.042-0.485
			c-0.52-1.267-1.048-2.53-1.599-3.784c-0.355-0.808-0.735-1.72-1.813-1.609c-1.206,0.121-1.566,1.138-1.743,2.146
			C138.607,68.295,139.699,70.228,141.812,71.47z"/>
		<path fill="#33B6EA" d="M130.177,74.204c0.368,0.293,0.66,0.837,1.25,0.428c0.428-0.296,0.702-0.699,0.633-1.591
			c-0.327-0.875-0.917-1.95-1.903-2.751c-0.355-0.287-0.823-0.265-1.229-0.017c-0.428,0.261-0.518,0.686-0.44,1.138
			C128.682,72.56,129.272,73.479,130.177,74.204z"/>
		<path fill="#33B6EA" d="M158.885,130.881c-0.849,0.049-1.496,0.471-1.478,1.352c0.017,0.819,0.745,0.871,1.399,0.866
			c0.753-0.001,1.409-0.175,1.436-1.086C160.27,131.102,159.672,130.837,158.885,130.881z"/>
		<path fill="#33B6EA" d="M460.431,248.217c-0.59-0.375-1.238-0.112-1.533,0.28c-1.113,1.483-2.855,2.118-4.186,3.284
			c-1.611,1.414-2.814,1.516-4.387,0.047c-1.566-1.461-3.104-2.824-5.443-2.912c-0.816-0.028-1.643-0.567-2.404-0.98
			c-2.719-1.469-3.031-1.512-5.166,0.646c-1.092,1.106-1.838,0.827-2.502-0.267c-0.498-0.814-1.115-1.494-1.793-2.144
			c-0.561-0.539-1.23-0.627-1.902-0.332c-0.783,0.346-1.156,1.08-0.928,1.853c0.479,1.614,1.094,3.316,2.881,3.841
			c3.412,1.005,6.57,2.078,8.695,5.386c1.307,2.029,2.697,1.953,4.662,0.604c1.531-1.049,2.828-0.75,4.041,0.395
			c0.961,0.908,2.025,1.652,3.127,2.359c1.16,0.744,2.07,0.17,2.789-0.66c0.799-0.922-0.143-1.457-0.686-1.992
			c-0.486-0.475-1.072-0.848-1.598-1.289c-0.328-0.276-0.727-0.576-0.582-1.08c0.143-0.487,0.59-0.582,1.047-0.631
			c1.453-0.158,2.77-0.758,3.994-1.487c1.316-0.783,2.361-1.859,2.34-3.573C460.886,249.06,460.929,248.535,460.431,248.217z"/>
		<path fill="#33B6EA" d="M412.113,236.797c-1.705-1.199-2.561-1.15-3.811,0.388c-0.393,0.479-0.668,1.053-1.057,1.536
			c-1.645,2.027-3.311,4.085-5.605,5.364c-1.135,0.636-1.842,1.204-1.602,2.467c-0.063,0.972-0.084,1.903,0.832,2.388
			c1.373,0.728,2.742,1.556,4.215,1.968c1.029,0.289,2.441,0.711,3.252-0.565c1.064-1.678,1.961-3.462,3.223-5.016
			c0.301-0.366,0.355-0.84,0.18-1.243c-0.676-1.523-0.146-2.856,0.746-4.013C413.492,238.77,413.503,237.775,412.113,236.797z"/>
		<path fill="#33B6EA" d="M431.595,198.366c0.166-1.884,2.295-3.179,3.91-2.288c0.969,0.533,1.623,0.4,2.303-0.343
			c0.338-0.372,0.748-0.621,1.232-0.805c3.996-1.514,5.275-4.807,5.678-8.823c-0.063-0.361-0.125-0.855-0.238-1.336
			c-0.168-0.695-0.09-1.668-1.143-1.645c-0.922,0.021-1.92,0.183-2.354,1.198c-0.289,0.682-0.475,1.414-0.666,2.134
			c-0.93,3.454-3.432,5.878-6.875,5.855c-2.393-0.018-3.676,1.22-4.924,2.781c-1.426,1.778-1.188,3.73,0.459,5.318
			c0.789,0.762,1.385,0.578,2.051-0.135C431.554,199.716,431.533,199.054,431.595,198.366z"/>
		<path fill="#33B6EA" d="M422.068,232.705c-2.004,0.14-2.932-0.748-3.451-2.467c-0.088-0.287-0.32-0.532-0.504-0.782
			c-0.998-1.354-0.848-1.776,0.867-2.164c0.566-0.126,1.182-0.146,1.24-0.871c0.063-0.73-0.541-0.885-1.096-1.044
			c-1.396-0.398-1.754-1.257-1.143-2.565c0.184-0.393,0.314-0.816,0.42-1.238c0.291-1.192-0.15-2.116-1.199-2.671
			c-1.002-0.533-1.762-0.007-2.455,0.738c-2.283,2.454-1.92,7.347,0.803,9.614c0.611,0.51,0.73,0.986,0.936,1.743
			c0.412,1.534,1.66,2.858,0.662,4.604c-0.041,0.077,0.152,0.333,0.285,0.457c0.975,0.922,2.119,1.508,3.332,1.716
			c1.359,0.026,3.596-1.841,3.557-3.008C424.279,233.394,423.115,232.635,422.068,232.705z"/>
		<path fill="#33B6EA" d="M412.986,230.351c-0.922,0.021-2.322,1.49-2.246,2.375c0.063,0.72,0.57,0.872,1.391,0.877
			c1.004-0.194,1.836-0.9,2.094-2.061C414.412,230.702,413.8,230.334,412.986,230.351z"/>
		<path fill="#33B6EA" d="M425.611,245.563c1.049-0.026,1.586-0.787,1.842-1.833c-0.225-0.822-0.672-1.415-1.645-1.368
			c-1.01,0.049-1.604,0.609-1.625,1.632C424.164,244.933,424.671,245.587,425.611,245.563z"/>
		<path fill="#33B6EA" d="M462.447,256.295c-1.039-0.045-1.156,0.711-1.137,1.502c0.021,0.724-0.078,1.658,1.014,1.572
			c0.859-0.063,1.15-0.801,1.137-1.619C463.466,257.023,463.353,256.334,462.447,256.295z"/>
		<path fill="#33B6EA" d="M462.496,252.148c-0.873-0.088-1.395,0.477-1.479,1.309c-0.092,0.877,0.502,1.166,1.465,1.193
			c0.531,0,1.242-0.068,1.295-0.988C463.826,252.803,463.326,252.229,462.496,252.148z"/>
		<path fill="#33B6EA" d="M444.171,233.102c0.029,0.882,0.676,1.254,1.414,1.277c0.832-0.024,1.33-0.312,1.309-1.103
			c-0.025-0.961-0.773-1.254-1.521-1.317C444.675,231.901,444.152,232.416,444.171,233.102z"/>
		<path fill="#33B6EA" d="M427.648,249.127c-1.051-0.313-1.939,0.034-2.707,0.75c-0.318,0.298-0.65,0.677-0.391,1.125
			c0.375,0.642,0.975,0.372,1.475,0.175c0.799-0.313,1.918-0.069,2.268-1.163C428.248,249.538,428.027,249.242,427.648,249.127z"/>
		<path fill="#33B6EA" d="M421.107,230.936c0.881-0.002,1.307-0.541,1.424-1.314c-0.045-0.834-0.502-1.12-1.221-1.12
			c-0.822-0.003-1.26,0.387-1.262,1.222C420.044,230.434,420.333,230.938,421.107,230.936z"/>
		<path fill="#33B6EA" d="M422.009,247.63c-0.934,0.01-1.383,0.615-1.387,1.408c-0.006,0.754,0.711,0.696,1.266,0.724
			c0.75-0.02,1.385-0.207,1.375-1.121C423.257,247.83,422.71,247.622,422.009,247.63z"/>
		<path fill="#33B6EA" d="M469.253,252.525c-0.646,0.027-1.086,0.299-1.098,1c-0.018,0.799,0.477,1.088,1.203,1.094
			c0.738,0.004,1.184-0.317,1.199-1.09C470.49,252.701,469.96,252.498,469.253,252.525z"/>
		<path fill="#33B6EA" d="M315.509,76.046c0.484,0.088,0.998,0.071,1.494,0.041c0.822-0.05,1.402,0.261,1.916,0.916
			c1.646,2.095,3.092,1.881,4.469-0.422c0.668-1.117,1.658-2.063,3.182-1.97c0.58,0.036,0.764,0.437,0.686,0.906
			c-0.232,1.435-1.215,2.387-2.498,2.692c-1.053,0.251-1.49,0.629-1.158,1.594c0.322,0.933,1.145,1.559,2.051,0.995
			c1.959-1.215,4.146-1.18,6.217-1.688c2.654-0.653,6.43-0.664,7.465-4.601c0.264-0.996,2.168-1.847,1.109-2.928
			c-1.311-1.332-2.064,0.56-2.971,1.229c-0.463,0.341-0.871,0.809-1.467,0.361c-0.539-0.402-0.475-0.979-0.246-1.529
			c0.262-0.63,0.672-1.211,0.58-1.929c0.076-1.14-0.5-1.81-1.559-1.506c-1.854,0.531-3.922,0.556-5.281,2.372
			c-1.121,1.493-2.615,1.831-4.248,0.59c-1.076-0.82-2.02-1.247-2.664,0.582c-0.311,0.878-1.365,1.517-1.893,0.203
			c-0.525-1.316-1.412-1.169-2.4-1.18c-1.613-0.015-2.535,1.23-3.674,2.045c-0.5,0.356-1.371,0.796-1.025,1.586
			C313.933,75.183,314.574,75.875,315.509,76.046z"/>
		<path fill="#33B6EA" d="M341.888,70.054c1.117-0.098,1.77-0.781,1.938-1.866c0.092-0.576-0.004-1.212-0.801-1.123
			c-1.17,0.129-1.658,1.104-2.23,1.888C340.89,69.702,341.236,70.11,341.888,70.054z"/>
	</g>
</g>
<g id="Ebene_6">
	<g>
		<g>
			<defs>
				<path id="SVGID_1_" d="M121.25,51.267c0,0,5.583,58,4.625,85.229c-0.397,11.281-4.188,42.375-21.813,42.375
					c-18.979,0-21.146-22.813-44.438-22.813c-13.875,0-37.625,9.042-37.625,48.75c0,30.375,19.25,45.375,34.625,45.375
					c22.875,0,19.625-18,43.875-18c23.917,0,24.875,22.375,24.875,34.75s-3.042,47-8.875,82c4.417,0.667,11.51,1.468,23.25,5.125
					c15.917,4.959,28.125,8.875,53.625,8.875S233,353.309,233,342.309c0-17.041-15.625-14.25-15.625-34.75s20.625-30,41.25-30
					c20.625,0,41.459,9.959,41.459,34.875c0,22.5-13.084,17.125-13.084,35.75s22.375,18.125,28,18.125s61.5-1.832,87-7.041
					c-1-13.25-4.582-66.542-4.582-82.917c0-21.667,10.082-23.792,15.457-23.792c16.125,0,16.875,12.292,39.625,12.292
					c20.584,0,40.625-19.75,40.625-49.792c0-27.125-19-38.75-34.625-38.75s-20.875,13.5-47.75,13.5
					c-9.498,0-15.832-3.792-15.832-22.292c0-37.275,4.166-74.417,4.332-109.583c-18.666-2.75-66.625-10-93.125-10
					c-24.207,0-25.957,10.125-25.957,16.75c0,17.083,23.5,22.167,23.5,38.5c0,29.917-23.793,37.75-43.293,37.75
					c-17.042,0-42.458-15.583-42.458-40.083c0-12.042,3.374-15.688,6.844-19.159c5.189-5.189,11.177-8.299,11.177-16.508
					c0-14.25-14.396-16.667-31.271-16.667S121.25,51.267,121.25,51.267z"/>
			</defs>
			<clipPath id="SVGID_2_">
				<use xlink:href="#SVGID_1_"  overflow="visible"/>
			</clipPath>
			<g clip-path="url(#SVGID_2_)">
				
					<linearGradient id="SVGID_3_" gradientUnits="userSpaceOnUse" x1="149.084" y1="733.7126" x2="149.084" y2="231.4646" gradientTransform="matrix(1 0 0 -1 0.04 514.7319)">
					<stop  offset="0" style="stop-color:#FFFFFF;stop-opacity:0.9"/>
					<stop  offset="1" style="stop-color:#FFFFFF;stop-opacity:0.05"/>
				</linearGradient>
				<circle fill="url(#SVGID_3_)" cx="149.124" cy="32.143" r="251.124"/>
			</g>
		</g>
	</g>
</g>
</svg>
