# Blender v2.79 (sub 0) OBJ File: 'Streetlamp.blend'
# www.blender.org
mtllib streetlamp.mtl
o Cube
v -0.150000 0.000000 0.150000
v -0.097256 5.000000 0.097256
v -0.150000 0.000000 -0.150000
v -0.097256 5.000000 -0.097256
v 0.150000 0.000000 0.150000
v 0.097256 5.000000 0.097256
v 0.150000 0.000000 -0.150000
v 0.097256 5.000000 -0.097256
v -0.284145 5.254552 0.284145
v -0.284145 5.254552 -0.284145
v 0.284145 5.254552 0.284145
v 0.284145 5.254552 -0.284145
v -0.394483 5.936131 0.394483
v -0.394483 5.936131 -0.394483
v 0.394483 5.936131 0.394483
v 0.394483 5.936131 -0.394483
v -0.173686 6.075606 0.173686
v -0.173686 6.075606 -0.173686
v 0.173686 6.075606 0.173686
v 0.173686 6.075606 -0.173686
v -0.242428 5.243473 0.242428
v -0.242428 5.989393 0.242428
v -0.242428 5.243473 -0.242428
v -0.242428 5.989393 -0.242428
v 0.242428 5.243473 0.242428
v 0.242428 5.989393 0.242428
v 0.242428 5.243473 -0.242428
v 0.242428 5.989393 -0.242428
vn -1.0000 0.0000 0.0000
vn 0.0000 0.0000 -1.0000
vn 1.0000 0.0000 0.0000
vn 0.0000 0.0000 1.0000
vn 0.0000 -1.0000 0.0000
vn 0.0000 1.0000 0.0000
vn -0.9999 0.0105 0.0000
vn 0.0000 0.0105 -0.9999
vn 0.9999 0.0105 -0.0000
vn 0.0000 0.0105 0.9999
vn 0.0000 -0.5918 -0.8061
vn 0.8061 -0.5918 0.0000
vn -0.8061 -0.5918 0.0000
vn 0.0000 -0.5918 0.8061
vn -0.5341 0.8454 0.0000
vn 0.0000 0.8454 0.5341
vn 0.0000 0.8454 -0.5341
vn 0.5341 0.8454 -0.0000
usemtl Lamp
s off
f 21//1 22//1 24//1 23//1
f 23//2 24//2 28//2 27//2
f 27//3 28//3 26//3 25//3
f 25//4 26//4 22//4 21//4
f 23//5 27//5 25//5 21//5
f 28//6 24//6 22//6 26//6
usemtl Material
f 1//7 2//7 4//7 3//7
f 3//8 4//8 8//8 7//8
f 7//9 8//9 6//9 5//9
f 5//10 6//10 2//10 1//10
f 3//5 7//5 5//5 1//5
f 8//11 4//11 10//11 12//11
f 6//12 8//12 12//12 11//12
f 4//13 2//13 9//13 10//13
f 2//14 6//14 11//14 9//14
f 14//15 13//15 17//15 18//15
f 20//6 18//6 17//6 19//6
f 13//16 15//16 19//16 17//16
f 16//17 14//17 18//17 20//17
f 15//18 16//18 20//18 19//18
f 9//6 11//6 12//6 10//6
f 13//5 14//5 16//5 15//5
