# Blender v2.79 (sub 0) OBJ File: 'car.blend'
# www.blender.org
mtllib car.mtl
o Circle.001_Circle
v -1.231113 0.507112 0.897553
v -1.336122 0.478975 0.897553
v -1.412993 0.402103 0.897553
v -1.441130 0.297095 0.897553
v -1.412993 0.192087 0.897553
v -1.336122 0.115215 0.897553
v -1.231113 0.087078 0.897553
v -1.126105 0.115215 0.897553
v -1.049234 0.192087 0.897553
v -1.021097 0.297095 0.897553
v -1.049233 0.402103 0.897553
v -1.126105 0.478975 0.897553
v -1.231113 0.592552 0.897553
v -1.378842 0.552968 0.897553
v -1.486987 0.444824 0.897553
v -1.526570 0.297095 0.897553
v -1.486987 0.149366 0.897553
v -1.378842 0.041222 0.897553
v -1.231113 0.001638 0.897553
v -1.083385 0.041222 0.897553
v -0.975240 0.149366 0.897553
v -0.935656 0.297095 0.897553
v -0.975240 0.444823 0.897553
v -1.083385 0.552968 0.897553
v -1.336122 0.478975 0.877955
v -1.231113 0.507112 0.877955
v -1.412993 0.402103 0.877955
v -1.441130 0.297095 0.877955
v -1.412993 0.192087 0.877955
v -1.336122 0.115215 0.877955
v -1.231113 0.087078 0.877955
v -1.126105 0.115215 0.877955
v -1.049234 0.192087 0.877955
v -1.021097 0.297095 0.877955
v -1.049233 0.402103 0.877955
v -1.126105 0.478975 0.877955
v -1.231113 0.592552 0.697553
v -1.378842 0.552968 0.697553
v -1.486987 0.444824 0.697553
v -1.526570 0.297095 0.697553
v -1.486987 0.149366 0.697553
v -1.378842 0.041222 0.697553
v -1.231113 0.001638 0.697553
v -1.083385 0.041222 0.697553
v -0.975240 0.149366 0.697553
v -0.935656 0.297095 0.697553
v -0.975240 0.444823 0.697553
v -1.083385 0.552968 0.697553
v -1.231113 0.507112 -0.897553
v -1.336122 0.478975 -0.897553
v -1.412993 0.402103 -0.897553
v -1.441130 0.297095 -0.897553
v -1.412993 0.192087 -0.897553
v -1.336122 0.115215 -0.897553
v -1.231113 0.087078 -0.897553
v -1.126105 0.115215 -0.897553
v -1.049234 0.192087 -0.897553
v -1.021097 0.297095 -0.897553
v -1.049233 0.402103 -0.897553
v -1.126105 0.478975 -0.897553
v -1.231113 0.592552 -0.897553
v -1.378842 0.552968 -0.897553
v -1.486987 0.444824 -0.897553
v -1.526570 0.297095 -0.897553
v -1.486987 0.149366 -0.897553
v -1.378842 0.041222 -0.897553
v -1.231113 0.001638 -0.897553
v -1.083385 0.041222 -0.897553
v -0.975240 0.149366 -0.897553
v -0.935656 0.297095 -0.897553
v -0.975240 0.444823 -0.897553
v -1.083385 0.552968 -0.897553
v -1.336122 0.478975 -0.877955
v -1.231113 0.507112 -0.877955
v -1.412993 0.402103 -0.877955
v -1.441130 0.297095 -0.877955
v -1.412993 0.192087 -0.877955
v -1.336122 0.115215 -0.877955
v -1.231113 0.087078 -0.877955
v -1.126105 0.115215 -0.877955
v -1.049234 0.192087 -0.877955
v -1.021097 0.297095 -0.877955
v -1.049233 0.402103 -0.877955
v -1.126105 0.478975 -0.877955
v -1.231113 0.592552 -0.697553
v -1.378842 0.552968 -0.697553
v -1.486987 0.444824 -0.697553
v -1.526570 0.297095 -0.697553
v -1.486987 0.149366 -0.697553
v -1.378842 0.041222 -0.697553
v -1.231113 0.001638 -0.697553
v -1.083385 0.041222 -0.697553
v -0.975240 0.149366 -0.697553
v -0.935656 0.297095 -0.697553
v -0.975240 0.444823 -0.697553
v -1.083385 0.552968 -0.697553
vn 0.2588 0.9659 0.0000
vn -0.0000 -0.0000 1.0000
vn 0.9659 -0.2588 0.0000
vn -0.9659 -0.2588 0.0000
vn -0.2588 0.9659 0.0000
vn 0.9659 0.2588 0.0000
vn -0.7071 -0.7071 0.0000
vn 0.2588 -0.9659 0.0000
vn -0.7071 0.7071 0.0000
vn 0.7071 0.7071 0.0000
vn -0.2588 -0.9659 0.0000
vn 0.7071 -0.7071 0.0000
vn -0.9659 0.2588 0.0000
vn -0.0000 -0.0000 -1.0000
usemtl Material.001
s off
f 7//1 31//1 30//1 6//1
f 7//2 19//2 20//2 8//2
f 4//2 16//2 17//2 5//2
f 11//2 23//2 24//2 12//2
f 1//2 13//2 14//2 2//2
f 8//2 20//2 21//2 9//2
f 5//2 17//2 18//2 6//2
f 12//2 24//2 13//2 1//2
f 2//2 14//2 15//2 3//2
f 9//2 21//2 22//2 10//2
f 6//2 18//2 19//2 7//2
f 3//2 15//2 16//2 4//2
f 10//2 22//2 23//2 11//2
f 4//3 28//3 27//3 3//3
f 11//4 35//4 34//4 10//4
f 8//5 32//5 31//5 7//5
f 5//6 29//6 28//6 4//6
f 12//7 36//7 35//7 11//7
f 2//8 25//8 26//8 1//8
f 9//9 33//9 32//9 8//9
f 6//10 30//10 29//10 5//10
f 1//11 26//11 36//11 12//11
f 3//12 27//12 25//12 2//12
f 10//13 34//13 33//13 9//13
f 14//9 38//9 39//9 15//9
f 21//3 45//3 46//3 22//3
f 18//11 42//11 43//11 19//11
f 15//13 39//13 40//13 16//13
f 22//6 46//6 47//6 23//6
f 19//8 43//8 44//8 20//8
f 16//4 40//4 41//4 17//4
f 23//10 47//10 48//10 24//10
f 13//5 37//5 38//5 14//5
f 20//12 44//12 45//12 21//12
f 17//7 41//7 42//7 18//7
f 24//1 48//1 37//1 13//1
f 55//1 54//1 78//1 79//1
f 55//14 56//14 68//14 67//14
f 52//14 53//14 65//14 64//14
f 59//14 60//14 72//14 71//14
f 49//14 50//14 62//14 61//14
f 56//14 57//14 69//14 68//14
f 53//14 54//14 66//14 65//14
f 60//14 49//14 61//14 72//14
f 50//14 51//14 63//14 62//14
f 57//14 58//14 70//14 69//14
f 54//14 55//14 67//14 66//14
f 51//14 52//14 64//14 63//14
f 58//14 59//14 71//14 70//14
f 52//3 51//3 75//3 76//3
f 59//4 58//4 82//4 83//4
f 56//5 55//5 79//5 80//5
f 53//6 52//6 76//6 77//6
f 60//7 59//7 83//7 84//7
f 50//8 49//8 74//8 73//8
f 57//9 56//9 80//9 81//9
f 54//10 53//10 77//10 78//10
f 49//11 60//11 84//11 74//11
f 51//12 50//12 73//12 75//12
f 58//13 57//13 81//13 82//13
f 62//9 63//9 87//9 86//9
f 69//3 70//3 94//3 93//3
f 66//11 67//11 91//11 90//11
f 63//13 64//13 88//13 87//13
f 70//6 71//6 95//6 94//6
f 67//8 68//8 92//8 91//8
f 64//4 65//4 89//4 88//4
f 71//10 72//10 96//10 95//10
f 61//5 62//5 86//5 85//5
f 68//12 69//12 93//12 92//12
f 65//7 66//7 90//7 89//7
f 72//1 61//1 85//1 96//1
usemtl Material.002
f 25//2 27//2 28//2 29//2 30//2 31//2 32//2 33//2 34//2 35//2 36//2 26//2
f 73//14 74//14 84//14 83//14 82//14 81//14 80//14 79//14 78//14 77//14 76//14 75//14
o Circle
v 1.278560 0.507112 0.897553
v 1.173552 0.478975 0.897553
v 1.096681 0.402103 0.897553
v 1.068544 0.297095 0.897553
v 1.096681 0.192087 0.897553
v 1.173552 0.115215 0.897553
v 1.278560 0.087078 0.897553
v 1.383569 0.115215 0.897553
v 1.460440 0.192087 0.897553
v 1.488577 0.297095 0.897553
v 1.460440 0.402103 0.897553
v 1.383569 0.478975 0.897553
v 1.278560 0.592552 0.897553
v 1.130832 0.552968 0.897553
v 1.022687 0.444824 0.897553
v 0.983103 0.297095 0.897553
v 1.022687 0.149366 0.897553
v 1.130832 0.041222 0.897553
v 1.278560 0.001638 0.897553
v 1.426289 0.041222 0.897553
v 1.534434 0.149366 0.897553
v 1.574017 0.297095 0.897553
v 1.534434 0.444823 0.897553
v 1.426289 0.552968 0.897553
v 1.173552 0.478975 0.877955
v 1.278560 0.507112 0.877955
v 1.096681 0.402103 0.877955
v 1.068544 0.297095 0.877955
v 1.096681 0.192087 0.877955
v 1.173552 0.115215 0.877955
v 1.278560 0.087078 0.877955
v 1.383569 0.115215 0.877955
v 1.460440 0.192087 0.877955
v 1.488577 0.297095 0.877955
v 1.460440 0.402103 0.877955
v 1.383569 0.478975 0.877955
v 1.278560 0.592552 0.697553
v 1.130832 0.552968 0.697553
v 1.022687 0.444824 0.697553
v 0.983103 0.297095 0.697553
v 1.022687 0.149366 0.697553
v 1.130832 0.041222 0.697553
v 1.278560 0.001638 0.697553
v 1.426289 0.041222 0.697553
v 1.534434 0.149366 0.697553
v 1.574017 0.297095 0.697553
v 1.534434 0.444823 0.697553
v 1.426289 0.552968 0.697553
v 1.278560 0.507112 -0.897553
v 1.173552 0.478975 -0.897553
v 1.096681 0.402103 -0.897553
v 1.068544 0.297095 -0.897553
v 1.096681 0.192087 -0.897553
v 1.173552 0.115215 -0.897553
v 1.278560 0.087078 -0.897553
v 1.383569 0.115215 -0.897553
v 1.460440 0.192087 -0.897553
v 1.488577 0.297095 -0.897553
v 1.460440 0.402103 -0.897553
v 1.383569 0.478975 -0.897553
v 1.278560 0.592552 -0.897553
v 1.130832 0.552968 -0.897553
v 1.022687 0.444824 -0.897553
v 0.983103 0.297095 -0.897553
v 1.022687 0.149366 -0.897553
v 1.130832 0.041222 -0.897553
v 1.278560 0.001638 -0.897553
v 1.426289 0.041222 -0.897553
v 1.534434 0.149366 -0.897553
v 1.574017 0.297095 -0.897553
v 1.534434 0.444823 -0.897553
v 1.426289 0.552968 -0.897553
v 1.173552 0.478975 -0.877955
v 1.278560 0.507112 -0.877955
v 1.096681 0.402103 -0.877955
v 1.068544 0.297095 -0.877955
v 1.096681 0.192087 -0.877955
v 1.173552 0.115215 -0.877955
v 1.278560 0.087078 -0.877955
v 1.383569 0.115215 -0.877955
v 1.460440 0.192087 -0.877955
v 1.488577 0.297095 -0.877955
v 1.460440 0.402103 -0.877955
v 1.383569 0.478975 -0.877955
v 1.278560 0.592552 -0.697553
v 1.130832 0.552968 -0.697553
v 1.022687 0.444824 -0.697553
v 0.983103 0.297095 -0.697553
v 1.022687 0.149366 -0.697553
v 1.130832 0.041222 -0.697553
v 1.278560 0.001638 -0.697553
v 1.426289 0.041222 -0.697553
v 1.534434 0.149366 -0.697553
v 1.574017 0.297095 -0.697553
v 1.534434 0.444823 -0.697553
v 1.426289 0.552968 -0.697553
vn 0.2588 0.9659 0.0000
vn -0.0000 -0.0000 1.0000
vn 0.9659 -0.2588 0.0000
vn -0.9659 -0.2588 0.0000
vn -0.2588 0.9659 0.0000
vn 0.9659 0.2588 0.0000
vn -0.7071 -0.7071 0.0000
vn 0.2588 -0.9659 0.0000
vn -0.7071 0.7071 0.0000
vn 0.7071 0.7071 0.0000
vn -0.2588 -0.9659 0.0000
vn 0.7071 -0.7071 0.0000
vn -0.9659 0.2588 0.0000
vn -0.0000 -0.0000 -1.0000
usemtl Material.001
s off
f 103//15 127//15 126//15 102//15
f 103//16 115//16 116//16 104//16
f 100//16 112//16 113//16 101//16
f 107//16 119//16 120//16 108//16
f 97//16 109//16 110//16 98//16
f 104//16 116//16 117//16 105//16
f 101//16 113//16 114//16 102//16
f 108//16 120//16 109//16 97//16
f 98//16 110//16 111//16 99//16
f 105//16 117//16 118//16 106//16
f 102//16 114//16 115//16 103//16
f 99//16 111//16 112//16 100//16
f 106//16 118//16 119//16 107//16
f 100//17 124//17 123//17 99//17
f 107//18 131//18 130//18 106//18
f 104//19 128//19 127//19 103//19
f 101//20 125//20 124//20 100//20
f 108//21 132//21 131//21 107//21
f 98//22 121//22 122//22 97//22
f 105//23 129//23 128//23 104//23
f 102//24 126//24 125//24 101//24
f 97//25 122//25 132//25 108//25
f 99//26 123//26 121//26 98//26
f 106//27 130//27 129//27 105//27
f 110//23 134//23 135//23 111//23
f 117//17 141//17 142//17 118//17
f 114//25 138//25 139//25 115//25
f 111//27 135//27 136//27 112//27
f 118//20 142//20 143//20 119//20
f 115//22 139//22 140//22 116//22
f 112//18 136//18 137//18 113//18
f 119//24 143//24 144//24 120//24
f 109//19 133//19 134//19 110//19
f 116//26 140//26 141//26 117//26
f 113//21 137//21 138//21 114//21
f 120//15 144//15 133//15 109//15
f 151//15 150//15 174//15 175//15
f 151//28 152//28 164//28 163//28
f 148//28 149//28 161//28 160//28
f 155//28 156//28 168//28 167//28
f 145//28 146//28 158//28 157//28
f 152//28 153//28 165//28 164//28
f 149//28 150//28 162//28 161//28
f 156//28 145//28 157//28 168//28
f 146//28 147//28 159//28 158//28
f 153//28 154//28 166//28 165//28
f 150//28 151//28 163//28 162//28
f 147//28 148//28 160//28 159//28
f 154//28 155//28 167//28 166//28
f 148//17 147//17 171//17 172//17
f 155//18 154//18 178//18 179//18
f 152//19 151//19 175//19 176//19
f 149//20 148//20 172//20 173//20
f 156//21 155//21 179//21 180//21
f 146//22 145//22 170//22 169//22
f 153//23 152//23 176//23 177//23
f 150//24 149//24 173//24 174//24
f 145//25 156//25 180//25 170//25
f 147//26 146//26 169//26 171//26
f 154//27 153//27 177//27 178//27
f 158//23 159//23 183//23 182//23
f 165//17 166//17 190//17 189//17
f 162//25 163//25 187//25 186//25
f 159//27 160//27 184//27 183//27
f 166//20 167//20 191//20 190//20
f 163//22 164//22 188//22 187//22
f 160//18 161//18 185//18 184//18
f 167//24 168//24 192//24 191//24
f 157//19 158//19 182//19 181//19
f 164//26 165//26 189//26 188//26
f 161//21 162//21 186//21 185//21
f 168//15 157//15 181//15 192//15
usemtl Material.002
f 121//16 123//16 124//16 125//16 126//16 127//16 128//16 129//16 130//16 131//16 132//16 122//16
f 169//28 170//28 180//28 179//28 178//28 177//28 176//28 175//28 174//28 173//28 172//28 171//28
o Cube_Cube.001
v 0.000000 0.100000 -0.000000
v 1.569040 0.100000 -0.000000
v 0.000000 0.100000 0.680504
v -1.562015 0.100000 -0.000000
v 0.000000 0.100000 -0.680504
v 1.569040 0.100000 -0.680504
v 1.569040 0.100000 0.680504
v -1.562015 0.100000 0.680504
v -1.562015 0.100000 -0.680505
v -0.000000 1.500000 0.000000
v 0.000000 1.500000 -0.639107
v -1.562016 0.969264 0.000000
v -0.000001 1.500000 0.639107
v 1.569039 1.189042 0.000000
v 1.569040 1.189042 -0.680504
v -1.562015 0.969264 -0.680504
v -1.562016 0.969264 0.680504
v 1.569039 1.189042 0.680505
v 2.000000 0.637596 0.000000
v 2.000000 0.637596 -0.680504
v 1.987162 0.750532 0.000000
v 2.000000 0.637596 0.680505
v 2.000000 0.314637 0.000000
v 2.000000 0.314637 -0.680504
v 1.987162 0.750532 -0.680504
v 1.987162 0.750532 0.680505
v 2.000000 0.314637 0.680504
v -0.000001 0.800000 0.900000
v 1.569039 0.637596 0.900000
v -0.000001 1.150000 0.856286
v -1.562016 0.559355 0.900000
v -0.000000 0.266806 0.900000
v 1.610833 0.266806 0.900000
v 1.569039 0.817425 0.900000
v -1.562016 0.690479 0.900000
v -1.562016 0.266806 0.900000
v -2.000000 0.559355 -0.000000
v -2.000000 0.559355 0.680504
v -1.982529 0.690479 -0.000000
v -2.000000 0.559355 -0.680505
v -2.000000 0.293902 -0.000000
v -2.000000 0.293902 0.680504
v -1.982529 0.690479 0.680504
v -1.982529 0.690479 -0.680505
v -2.000000 0.293902 -0.680505
v 0.000000 0.800000 -0.900000
v 1.569040 0.637596 -0.900000
v 0.000000 0.266806 -0.900000
v -1.562015 0.559355 -0.900000
v 0.000000 1.150000 -0.856286
v 1.569040 0.817425 -0.900000
v 1.610834 0.266806 -0.900000
v -1.562015 0.266806 -0.900000
v -1.562015 0.690479 -0.900000
v 1.928320 0.151426 -0.651278
v 1.928320 0.151426 0.000000
v 1.928320 0.151426 0.651279
v 1.562258 0.100000 -0.861348
v -0.000032 0.100000 -0.861348
v -1.506090 0.100000 -0.861348
v 1.897346 0.266806 -0.809059
v 1.897346 0.637596 -0.809059
v 1.897346 0.750532 -0.809058
v 1.562257 0.100000 0.861348
v -0.000033 0.100000 0.861348
v -1.506091 0.100000 0.861348
v 1.897345 0.266806 0.809059
v 1.897345 0.637596 0.809059
v 1.897344 0.750532 0.809059
v -1.928385 0.144613 0.651278
v -1.928385 0.144613 -0.000000
v -1.928385 0.144613 -0.651279
v -1.897346 0.266806 0.809059
v -1.897346 0.559355 0.809059
v -1.895096 0.690479 0.809059
v -1.897345 0.266806 -0.809059
v -1.897345 0.559355 -0.809059
v -1.895095 0.690479 -0.809059
v 1.945124 0.868192 -0.680503
v 1.945123 0.868192 0.000001
v 1.945123 0.868192 0.680505
v 1.569040 0.962121 -0.842676
v 0.000001 1.345790 -0.791414
v -1.562015 0.864486 -0.842676
v 1.569038 0.962121 0.842677
v -0.000001 1.345790 0.791414
v -1.562016 0.864486 0.842676
v -1.891959 0.864486 0.680504
v -1.891959 0.864486 -0.000000
v -1.891958 0.864486 -0.680504
v 1.829342 0.151426 -0.774312
v 1.829342 0.151426 0.774312
v -1.829408 0.144613 0.774312
v -1.829407 0.144613 -0.774312
v 1.826144 0.868192 -0.809058
v 1.826142 0.868192 0.809059
v -1.785869 0.843517 0.809059
v -1.785869 0.843517 -0.809059
v 0.939783 0.100000 -0.000000
v 0.939783 0.100000 -0.680504
v 0.939783 0.100000 0.680504
v 0.891494 1.500000 -0.639107
v 0.891493 1.500000 0.000000
v 0.891493 1.500000 0.639108
v 0.891493 0.800000 0.900000
v 0.939782 0.266806 0.900000
v 0.891493 1.150000 0.856287
v 0.891494 0.800000 -0.900000
v 0.891494 1.150000 -0.856286
v 0.939783 0.266806 -0.900000
v 0.980338 0.100000 -0.861348
v 0.980337 0.100000 0.861348
v 0.891494 1.345790 -0.791414
v 0.891493 1.345790 0.791414
v -0.907662 0.100000 -0.000000
v -0.907662 0.100000 0.680504
v -0.907661 0.100000 -0.680504
v -0.907662 1.027041 0.000000
v -0.907662 1.027041 -0.680504
v -0.907662 1.027041 0.680504
v -0.907662 0.640301 0.900000
v -0.907663 0.776321 0.900000
v -0.907662 0.266806 0.900000
v -0.907661 0.640301 -0.900000
v -0.907661 0.266806 -0.900000
v -0.907661 0.776321 -0.900000
v -0.875178 0.100000 -0.861348
v -0.875179 0.100000 0.861348
v -0.907661 0.941826 -0.842676
v -0.907663 0.941826 0.842676
v -0.907662 0.453554 0.900000
v -0.907661 0.453554 -0.900000
v -1.234839 0.632508 0.900000
v -1.234838 0.632508 -0.900000
v -1.021389 0.567590 0.900000
v -1.021388 0.567590 -0.900000
v -1.562016 0.413080 0.900000
v -1.562015 0.413080 -0.900000
v -1.398427 0.595932 0.900000
v -1.398426 0.595932 -0.900000
v -1.982529 0.690479 0.340252
v -1.982529 0.690479 -0.340252
v -1.891959 0.864486 0.448585
v -1.891958 0.864486 -0.448585
v 1.987162 0.750532 -0.340252
v 1.987162 0.750532 0.340253
v 1.945123 0.868192 -0.448224
v 1.945123 0.868192 0.448226
vn 0.0000 -1.0000 0.0000
vn 0.1417 -0.9899 0.0000
vn 0.1726 -0.9832 -0.0601
vn 0.1726 -0.9832 0.0601
vn -0.1209 -0.9927 -0.0000
vn -0.1398 -0.9876 0.0713
vn -0.1398 -0.9876 -0.0713
vn 0.2638 0.6139 -0.7440
vn 0.6490 0.7608 0.0000
vn 0.4369 0.6136 -0.6577
vn -0.0880 0.9961 -0.0000
vn -0.3027 0.9531 -0.0000
vn -0.0887 0.8595 -0.5034
vn -0.2234 0.8623 -0.4545
vn -0.0887 0.8595 0.5034
vn -0.2234 0.8623 0.4545
vn 0.2638 0.6139 0.7440
vn 0.4369 0.6136 0.6577
vn 1.0000 0.0000 0.0000
vn 0.7814 -0.0000 -0.6240
vn 0.9156 -0.4021 0.0000
vn 0.7276 -0.4778 -0.4923
vn 0.9936 0.1129 0.0000
vn 0.7997 0.0455 -0.5987
vn 0.7997 0.0455 0.5987
vn 0.7814 0.0000 0.6240
vn 0.7276 -0.4778 0.4923
vn 0.0000 -0.0000 1.0000
vn 0.2836 0.0160 0.9588
vn 0.3157 -0.3589 0.8784
vn 0.2669 -0.0000 0.9637
vn 0.2718 0.2753 0.9221
vn -0.2626 0.0023 0.9649
vn -0.0399 0.3197 0.9467
vn -0.2205 0.2394 0.9456
vn -0.2617 -0.0000 0.9651
vn -0.2666 -0.3430 0.9007
vn -1.0000 0.0000 -0.0000
vn -0.7814 0.0000 0.6240
vn -0.9016 -0.4325 -0.0000
vn -0.7072 -0.4848 0.5146
vn -0.9912 0.1321 -0.0000
vn -0.8026 0.0604 0.5934
vn -0.8026 0.0604 -0.5934
vn -0.7814 0.0000 -0.6240
vn -0.7072 -0.4848 -0.5146
vn 0.2669 0.0000 -0.9637
vn 0.2718 0.2753 -0.9221
vn 0.0000 0.0000 -1.0000
vn 0.2836 0.0160 -0.9588
vn 0.3157 -0.3589 -0.8784
vn -0.2617 0.0000 -0.9651
vn -0.2666 -0.3430 -0.9007
vn -0.0399 0.3197 -0.9467
vn -0.2626 0.0023 -0.9649
vn -0.2205 0.2394 -0.9456
vn 0.0000 -0.2257 -0.9742
vn -0.0000 -0.2257 0.9742
vn -0.0000 0.7027 0.7115
vn 0.0000 0.7027 -0.7115
vn -0.3332 0.7502 0.5711
vn -0.3332 0.7502 -0.5711
vn -0.8870 0.4617 -0.0000
vn 0.9417 0.3365 0.0000
vn 0.4171 0.9089 0.0000
vn -0.0021 0.0822 0.9966
vn 0.1119 0.3357 0.9353
vn -0.0021 0.0822 -0.9966
vn 0.1119 0.3357 -0.9353
vn 0.0000 0.3145 -0.9493
vn 0.0000 0.1239 -0.9923
vn -0.0000 0.3145 0.9493
vn 0.0000 0.1239 0.9923
vn 0.0000 1.0000 -0.0000
vn -0.0874 0.3192 -0.9437
vn -0.0023 0.0896 -0.9960
vn -0.0874 0.3192 0.9437
vn -0.0023 0.0896 0.9960
vn -0.4621 0.8868 -0.0000
vn 0.7272 0.3499 -0.5905
vn 0.7272 0.3499 0.5905
vn -0.7041 0.4301 0.5650
vn -0.7041 0.4301 -0.5650
usemtl Material
s off
f 291//29 292//29 198//29 194//29
f 194//30 198//30 247//30 248//30
f 198//31 250//31 283//31 247//31
f 291//29 194//29 199//29 293//29
f 194//30 248//30 249//30 199//30
f 199//32 249//32 284//32 256//32
f 307//29 308//29 200//29 196//29
f 196//33 200//33 262//33 263//33
f 200//34 258//34 285//34 262//34
f 307//29 196//29 201//29 309//29
f 196//33 263//33 264//33 201//33
f 201//35 264//35 286//35 252//35
f 294//36 207//36 274//36 305//36
f 206//37 272//37 339//37 271//37 207//37
f 207//38 271//38 287//38 274//38
f 310//39 311//39 208//39 204//39
f 204//40 208//40 282//40 336//40 281//40
f 311//41 321//41 276//41 208//41
f 208//42 276//42 290//42 282//42
f 310//39 204//39 209//39 312//39
f 312//43 209//43 279//43 322//43
f 204//40 281//40 335//40 280//40 209//40
f 209//44 280//44 289//44 279//44
f 206//37 210//37 273//37 340//37 272//37
f 296//45 306//45 277//45 210//45
f 210//46 277//46 288//46 273//46
f 211//47 215//47 216//47 212//47
f 212//48 216//48 253//48 254//48
f 215//49 248//49 247//49 216//49
f 216//50 247//50 283//50 253//50
f 211//51 212//51 217//51 337//51 213//51
f 212//52 254//52 255//52 217//52
f 211//51 213//51 338//51 218//51 214//51
f 214//53 218//53 261//53 260//53
f 211//47 214//47 219//47 215//47
f 215//49 219//49 249//49 248//49
f 214//54 260//54 259//54 219//54
f 219//55 259//55 284//55 249//55
f 297//56 298//56 225//56 221//56
f 221//57 225//57 259//57 260//57
f 225//58 256//58 284//58 259//58
f 221//59 260//59 261//59 226//59
f 226//60 261//60 288//60 277//60
f 313//56 314//56 227//56 223//56 331//56 325//56
f 223//61 227//61 267//61 266//61
f 314//62 322//62 279//62 227//62
f 227//63 279//63 289//63 267//63
f 223//64 266//64 265//64 228//64 329//64
f 228//65 265//65 285//65 258//65
f 229//66 233//66 234//66 230//66
f 230//67 234//67 265//67 266//67
f 233//68 263//68 262//68 234//68
f 234//69 262//69 285//69 265//69
f 229//70 230//70 235//70 333//70 231//70
f 230//71 266//71 267//71 235//71
f 229//70 231//70 334//70 236//70 232//70
f 232//72 236//72 270//72 269//72
f 229//66 232//66 237//66 233//66
f 233//68 237//68 264//68 263//68
f 232//73 269//73 268//73 237//73
f 237//74 268//74 286//74 264//74
f 239//75 243//75 255//75 254//75
f 243//76 274//76 287//76 255//76
f 300//77 239//77 244//77 302//77
f 239//78 254//78 253//78 244//78
f 244//79 253//79 283//79 250//79
f 316//77 324//77 328//77 326//77
f 241//80 330//80 245//80 268//80 269//80
f 327//56 323//56 313//56 325//56
f 245//81 252//81 286//81 268//81
f 316//77 326//77 332//77 241//77 246//77 318//77
f 318//82 246//82 276//82 321//82
f 241//83 269//83 270//83 246//83
f 246//84 270//84 290//84 276//84
f 240//85 302//85 303//85 251//85
f 238//77 300//77 302//77 240//77
f 224//86 257//86 304//86 298//86
f 220//56 224//56 298//56 297//56
f 205//87 278//87 306//87 296//87
f 203//88 294//88 305//88 275//88
f 195//29 293//29 304//29 257//29
f 193//29 291//29 293//29 195//29
f 197//29 251//29 303//29 292//29
f 193//29 197//29 292//29 291//29
f 240//85 251//85 319//85 317//85
f 238//77 240//77 317//77 324//77 316//77
f 224//86 315//86 320//86 257//86
f 220//56 313//56 323//56 315//56 224//56
f 205//89 312//89 322//89 278//89
f 203//90 275//90 321//90 311//90
f 197//29 309//29 319//29 251//29
f 193//29 307//29 309//29 197//29
f 195//29 257//29 320//29 308//29
f 193//29 195//29 308//29 307//29
f 332//77 330//77 241//77
f 331//56 223//56 329//56
f 231//91 281//91 336//91 334//91
f 231//91 333//91 335//91 281//91
f 213//92 272//92 340//92 338//92
f 213//92 337//92 339//92 272//92
usemtl Material.003
f 295//93 206//93 207//93 294//93
f 295//93 296//93 210//93 206//93
f 297//94 221//94 226//94 299//94
f 299//95 226//95 277//95 306//95
f 300//96 301//96 243//96 239//96
f 301//97 305//97 274//97 243//97
f 242//98 275//98 305//98 301//98
f 238//99 242//99 301//99 300//99
f 222//100 299//100 306//100 278//100
f 220//101 297//101 299//101 222//101
f 202//102 205//102 296//102 295//102
f 202//102 295//102 294//102 203//102
f 242//103 318//103 321//103 275//103
f 238//104 316//104 318//104 242//104
f 222//105 278//105 322//105 314//105
f 220//106 222//106 314//106 313//106
f 202//107 310//107 312//107 205//107
f 202//107 203//107 311//107 310//107
usemtl Material.004
f 337//92 217//92 271//92 339//92
f 338//92 340//92 273//92 218//92
usemtl Material.005
f 333//91 235//91 280//91 335//91
f 334//91 336//91 282//91 236//91
usemtl Material.006
f 217//108 255//108 287//108 271//108
f 218//109 273//109 288//109 261//109
f 235//110 267//110 289//110 280//110
f 236//111 282//111 290//111 270//111
l 250 303
l 256 304
