# Blender v2.79 (sub 0) OBJ File: 'tree_fir_simple.blend'
# www.blender.org
mtllib tree_fir.mtl
o Trunk_Circle
v 0.000000 0.000000 -0.205382
v -0.195330 0.000000 -0.063466
v -0.120720 0.000000 0.166157
v 0.120720 0.000000 0.166157
v 0.195330 0.000000 -0.063467
v 0.000000 5.000122 -0.010126
vn 0.0000 -1.0000 0.0000
vn 0.0000 0.0352 0.9994
vn -0.5875 0.0316 -0.8086
vn 0.9505 0.0338 0.3088
vn -0.9505 0.0338 0.3088
vn 0.5875 0.0316 -0.8086
usemtl Material
s off
f 2//1 1//1 5//1 4//1 3//1
f 3//2 4//2 6//2
f 1//3 2//3 6//3
f 4//4 5//4 6//4
f 2//5 3//5 6//5
f 5//6 1//6 6//6
o Leaves_Plane.019
v -0.482223 3.878992 -0.084472
v 1.198315 0.540295 1.036381
v 1.581754 0.550625 0.000270
v -1.296572 0.529570 0.940173
v -1.587248 0.556445 0.004183
v 0.546039 1.204839 1.388388
v -0.298083 0.566934 1.590403
v 0.546039 1.204839 -1.388388
v -0.546039 1.204839 -1.388388
v 1.283468 0.514003 -0.957884
v -1.155291 0.548074 -1.096682
v 0.000000 5.341655 0.000000
v 0.565318 3.885805 -0.005141
v 0.028442 0.529976 -1.568553
vn 0.9008 0.2751 0.3361
vn 0.4346 -0.0942 -0.8957
vn 0.9141 0.2781 -0.2952
vn -0.3703 -0.0679 -0.9264
vn 0.0662 0.3096 -0.9486
vn -0.8910 0.2869 -0.3518
vn -0.0724 0.3087 -0.9484
vn 0.6799 0.3124 -0.6634
vn 0.8035 0.3102 0.5081
vn 0.0705 -0.9974 0.0162
vn -0.0131 -0.9998 0.0126
vn 0.0170 -0.9994 0.0313
vn 0.3404 -0.1569 0.9271
vn -0.0221 -0.9995 -0.0218
vn -0.0141 -0.9999 0.0021
vn -0.0141 -0.9999 0.0029
vn -0.5288 0.2978 0.7948
vn -0.6761 0.3359 -0.6558
vn -0.7800 0.2892 -0.5549
vn 0.6778 0.3128 0.6654
vn -0.0123 0.3167 0.9484
vn -0.9057 0.3090 0.2902
vn 0.8039 0.3140 -0.5051
vn -0.9299 0.2938 0.2213
usemtl Material.001
s off
f 19//7 8//7 9//7
f 14//8 16//8 20//8
f 9//9 16//9 19//9
f 17//10 15//10 20//10
f 15//11 18//11 20//11
f 7//12 17//12 11//12
f 18//13 14//13 20//13
f 18//14 16//14 14//14
f 18//15 8//15 19//15
f 16//16 9//16 8//16
f 16//17 8//17 13//17
f 16//18 13//18 10//18
f 12//19 13//19 8//19
f 16//20 10//20 11//20
f 16//21 11//21 17//21
f 16//22 17//22 20//22
f 13//23 18//23 10//23
f 7//24 15//24 17//24
f 7//25 18//25 15//25
f 12//26 8//26 18//26
f 18//27 13//27 12//27
f 10//28 7//28 11//28
f 19//29 16//29 18//29
f 7//30 10//30 18//30
