# Blender v2.79 (sub 0) OBJ File: 'memorial.blend'
# www.blender.org
mtllib memorial.mtl
o Cube.001_Cube.002
v -0.513000 0.871750 0.513000
v -0.513000 1.128250 0.513000
v -0.513000 0.871750 -0.513000
v -0.513000 1.128250 -0.513000
v 0.513000 0.871750 0.513000
v 0.513000 1.128250 0.513000
v 0.513000 0.871750 -0.513000
v 0.513000 1.128250 -0.513000
v 1.026000 1.128250 -0.513000
v 1.026000 0.871750 -0.513000
v 1.026000 0.871750 0.513000
v 1.026000 1.128250 0.513000
v -0.513000 0.871750 1.026000
v -0.513000 1.128250 1.026000
v 0.513000 1.128250 1.026000
v 0.513000 0.871750 1.026000
v -1.026000 0.871750 -0.513000
v -1.026000 0.871750 0.513000
v -1.026000 1.128250 0.513000
v -1.026000 1.128250 -0.513000
v -0.513000 1.128250 -1.026000
v -0.513000 0.871750 -1.026000
v 0.513000 0.871750 -1.026000
v 0.513000 1.128250 -1.026000
vn 0.0000 0.0000 1.0000
vn 1.0000 0.0000 0.0000
vn 0.0000 1.0000 0.0000
vn -1.0000 0.0000 0.0000
vn 0.0000 0.0000 -1.0000
vn 0.0000 -1.0000 0.0000
usemtl Material.002
s off
f 1//1 2//1 19//1 18//1
f 8//2 7//2 23//2 24//2
f 8//3 6//3 12//3 9//3
f 2//4 1//4 13//4 14//4
f 10//2 9//2 12//2 11//2
f 7//5 8//5 9//5 10//5
f 6//1 5//1 11//1 12//1
f 5//6 7//6 10//6 11//6
f 16//1 15//1 14//1 13//1
f 1//6 5//6 16//6 13//6
f 6//3 2//3 14//3 15//3
f 5//2 6//2 15//2 16//2
f 18//4 19//4 20//4 17//4
f 2//3 4//3 20//3 19//3
f 3//6 1//6 18//6 17//6
f 4//5 3//5 17//5 20//5
f 22//5 21//5 24//5 23//5
f 7//6 3//6 22//6 23//6
f 4//3 8//3 24//3 21//3
f 3//4 4//4 21//4 22//4
o Cube_Cube.001
v -1.000000 0.250000 1.000000
v -1.000000 1.250000 1.000000
v -1.000000 0.250000 -1.000000
v -1.000000 1.250000 -1.000000
v 1.000000 0.250000 1.000000
v 1.000000 1.250000 1.000000
v 1.000000 0.250000 -1.000000
v 1.000000 1.250000 -1.000000
v -0.500000 1.750000 0.500000
v -0.500000 1.750000 -0.500000
v 0.500000 1.750000 0.500000
v 0.500000 1.750000 -0.500000
v -0.500000 3.750000 0.500000
v -0.500000 3.750000 -0.500000
v 0.500000 3.750000 0.500000
v 0.500000 3.750000 -0.500000
v 0.000000 4.750000 0.000000
v -2.000000 0.250000 -2.000000
v -2.000000 0.250000 2.000000
v 2.000000 0.250000 -2.000000
v 2.000000 0.250000 2.000000
v -2.000000 0.000000 -2.000000
v -2.000000 0.000000 2.000000
v 2.000000 0.000000 -2.000000
v 2.000000 0.000000 2.000000
vn 0.0000 1.0000 0.0000
vn 0.0000 0.0000 -1.0000
vn -1.0000 0.0000 0.0000
vn 1.0000 0.0000 0.0000
vn 0.0000 0.0000 1.0000
vn 0.0000 0.7071 -0.7071
vn 0.7071 0.7071 0.0000
vn -0.7071 0.7071 0.0000
vn 0.0000 0.7071 0.7071
vn 0.0000 0.4472 0.8944
vn 0.0000 0.4472 -0.8944
vn 0.8944 0.4472 0.0000
vn -0.8944 0.4472 0.0000
usemtl Material.001
s off
f 25//7 27//7 42//7 43//7
f 27//7 31//7 44//7 42//7
f 42//8 44//8 48//8 46//8
f 43//9 42//9 46//9 47//9
f 44//10 45//10 49//10 48//10
f 45//11 43//11 47//11 49//11
f 31//7 29//7 45//7 44//7
f 29//7 25//7 43//7 45//7
usemtl Material
f 25//9 26//9 28//9 27//9
f 27//8 28//8 32//8 31//8
f 31//10 32//10 30//10 29//10
f 29//11 30//11 26//11 25//11
f 32//12 28//12 34//12 36//12
f 35//10 36//10 40//10 39//10
f 30//13 32//13 36//13 35//13
f 28//14 26//14 33//14 34//14
f 26//15 30//15 35//15 33//15
f 37//16 39//16 41//16
f 34//9 33//9 37//9 38//9
f 33//11 35//11 39//11 37//11
f 36//8 34//8 38//8 40//8
f 40//17 38//17 41//17
f 39//18 40//18 41//18
f 38//19 37//19 41//19
